<svg width="32" height="23" viewBox="0 0 32 23" fill="none" xmlns="http://www.w3.org/2000/svg">
<path d="M31 3V1H27V3H25.77L23.77 0H17.23L15.23 3H14V1H8V3H0V23H32V3H31ZM28 2H30V3H28V2ZM9 2H13V3H9V2ZM8 22H1V7H8V22ZM31 22H9V6H1V4H15.77L17.77 1H23.23L25.23 4H31V22ZM12 13C12 14.5823 12.4692 16.129 13.3482 17.4446C14.2273 18.7602 15.4767 19.7855 16.9385 20.391C18.4003 20.9965 20.0089 21.155 21.5607 20.8463C23.1126 20.5376 24.538 19.7757 25.6569 18.6569C26.7757 17.538 27.5376 16.1126 27.8463 14.5607C28.155 13.0089 27.9965 11.4003 27.391 9.93853C26.7855 8.47672 25.7602 7.22729 24.4446 6.34824C23.129 5.46919 21.5823 5 20 5C17.8783 5 15.8434 5.84285 14.3431 7.34315C12.8429 8.84344 12 10.8783 12 13V13ZM27 13C27 14.3845 26.5895 15.7378 25.8203 16.889C25.0511 18.0401 23.9579 18.9373 22.6788 19.4672C21.3997 19.997 19.9922 20.1356 18.6344 19.8655C17.2765 19.5954 16.0292 18.9287 15.0503 17.9497C14.0713 16.9708 13.4046 15.7235 13.1345 14.3656C12.8644 13.0078 13.003 11.6003 13.5328 10.3212C14.0627 9.04213 14.9599 7.94888 16.111 7.17971C17.2622 6.41054 18.6155 6 20 6C21.8565 6 23.637 6.7375 24.9497 8.05025C26.2625 9.36301 27 11.1435 27 13ZM15 13C15 13.9889 15.2932 14.9556 15.8427 15.7779C16.3921 16.6001 17.173 17.241 18.0866 17.6194C19.0002 17.9978 20.0055 18.0969 20.9755 17.9039C21.9454 17.711 22.8363 17.2348 23.5355 16.5355C24.2348 15.8363 24.711 14.9454 24.9039 13.9755C25.0969 13.0055 24.9978 12.0002 24.6194 11.0866C24.241 10.173 23.6001 9.39206 22.7779 8.84265C21.9556 8.29325 20.9889 8 20 8C18.6739 8 17.4021 8.52678 16.4645 9.46447C15.5268 10.4021 15 11.6739 15 13V13ZM24 13C24 13.7911 23.7654 14.5645 23.3259 15.2223C22.8864 15.8801 22.2616 16.3928 21.5307 16.6955C20.7998 16.9983 19.9956 17.0775 19.2196 16.9231C18.4437 16.7688 17.731 16.3878 17.1716 15.8284C16.6122 15.269 16.2312 14.5563 16.0769 13.7804C15.9225 13.0044 16.0017 12.2002 16.3045 11.4693C16.6072 10.7384 17.1199 10.1136 17.7777 9.67412C18.4355 9.2346 19.2089 9 20 9C21.0609 9 22.0783 9.42143 22.8284 10.1716C23.5786 10.9217 24 11.9391 24 13ZM13 6.5C13 6.20333 12.912 5.91332 12.7472 5.66665C12.5824 5.41997 12.3481 5.22771 12.074 5.11418C11.7999 5.00065 11.4983 4.97094 11.2074 5.02882C10.9164 5.0867 10.6491 5.22956 10.4393 5.43934C10.2296 5.64912 10.0867 5.91639 10.0288 6.20736C9.97094 6.49834 10.0006 6.79994 10.1142 7.07403C10.2277 7.34811 10.42 7.58238 10.6666 7.7472C10.9133 7.91203 11.2033 8 11.5 8C11.8978 8 12.2794 7.84196 12.5607 7.56066C12.842 7.27936 13 6.89782 13 6.5V6.5ZM11.5 7C11.4011 7 11.3044 6.97068 11.2222 6.91574C11.14 6.86079 11.0759 6.7827 11.0381 6.69134C11.0002 6.59998 10.9903 6.49944 11.0096 6.40245C11.0289 6.30546 11.0765 6.21637 11.1464 6.14645C11.2164 6.07652 11.3055 6.0289 11.4025 6.00961C11.4994 5.99031 11.6 6.00022 11.6913 6.03806C11.7827 6.0759 11.8608 6.13999 11.9157 6.22221C11.9707 6.30444 12 6.40111 12 6.5C12 6.63261 11.9473 6.75979 11.8536 6.85355C11.7598 6.94732 11.6326 7 11.5 7Z" fill="#FB8500"/>
</svg>
