<svg width="34" height="30" viewBox="0 0 34 30" fill="none" xmlns="http://www.w3.org/2000/svg">
<path d="M10.9714 8.67018H4.78957C4.50508 8.67018 4.27441 8.90491 4.27441 9.19442V23.873C4.27441 24.1625 4.50508 24.3973 4.78957 24.3973H10.9714C11.2559 24.3973 11.4865 24.1625 11.4865 23.873V9.19442C11.4865 8.90491 11.2559 8.67018 10.9714 8.67018ZM10.4562 23.3488H5.30472V9.71865H10.4562V23.3488ZM13.3945 15.0112H20.6048C20.8893 15.0112 21.12 14.7765 21.12 14.487V9.19442C21.12 8.90491 20.8893 8.67018 20.6048 8.67018H13.3945C13.11 8.67018 12.8793 8.90491 12.8793 9.19442V14.487C12.8793 14.7765 13.11 15.0112 13.3945 15.0112ZM13.9096 9.71865H20.0897V13.9627H13.9096V9.71865V9.71865ZM23.0281 24.3973H29.21C29.4945 24.3973 29.7251 24.1625 29.7251 23.873V9.19442C29.7251 8.90491 29.4945 8.67018 29.21 8.67018H23.0281C22.7437 8.67018 22.513 8.90491 22.513 9.19442V23.873C22.513 24.1625 22.7437 24.3973 23.0281 24.3973ZM23.5433 9.71865H28.6948V23.3488H23.5433V9.71865ZM11.5209 3.45847C11.0224 3.33605 10.6567 3.25295 10.6567 2.88326C10.6567 2.57302 10.9348 2.45489 11.242 2.45489C11.5514 2.45489 11.9546 2.57177 12.1808 2.7793L12.4947 2.32827C12.1595 2.04433 11.6879 1.90259 11.2643 1.90259C10.62 1.90259 10.0441 2.23289 10.0441 2.92636C10.0441 3.67387 10.5742 3.85916 11.2893 4.03387C11.6396 4.11946 11.9866 4.21682 11.9866 4.56105C11.9866 4.87894 11.6828 5.01457 11.3689 5.01457C10.9905 5.01457 10.6251 4.85926 10.2733 4.54825L9.90464 4.9995C10.3264 5.38125 10.8093 5.57224 11.3541 5.57224C12.0351 5.57224 12.5993 5.20316 12.5993 4.53052C12.5993 3.86336 12.1612 3.61647 11.5209 3.45847Z" fill="#FB8500"/>
<path d="M15.6428 3.52454H13.9144V1.98853H13.3271V5.53184H13.9144V4.0818H15.6428V5.53184H16.2305V1.98853H15.6428V3.52454Z" fill="#FB8500"/>
<path d="M18.8056 1.90259C17.779 1.90259 16.9727 2.66962 16.9727 3.73482C16.9727 4.7976 17.7768 5.56709 18.8056 5.56709C19.8355 5.56709 20.6385 4.7961 20.6385 3.73482C20.6385 2.67211 19.8347 1.90259 18.8056 1.90259ZM18.8056 5.01972C18.102 5.01972 17.5754 4.44279 17.5754 3.73482C17.5754 3.02872 18.0998 2.44996 18.8056 2.44996C19.5106 2.44996 20.0358 3.02827 20.0358 3.73482C20.0358 4.44378 19.5079 5.01972 18.8056 5.01972ZM22.576 1.9886H21.3807V5.53161H21.9684V4.49257H22.5859C23.5048 4.49257 24.0952 4.18966 24.0952 3.25078C24.0952 2.29573 23.507 1.9886 22.576 1.9886ZM22.6508 3.95013H21.9684V2.53101H22.5661C23.1113 2.53101 23.4925 2.65186 23.4925 3.20252C23.4925 3.77386 23.2121 3.95013 22.6508 3.95013Z" fill="#FB8500"/>
<path d="M0.515152 28.9515C0.230662 28.9515 5.83403e-07 29.1863 5.83403e-07 29.4758C5.83403e-07 29.7653 0.230662 30 0.515152 30C11.469 30 22.484 30 33.4848 30C33.7693 30 34 29.7653 34 29.4758C34 29.1863 33.7693 28.9515 33.4848 28.9515H32.2782V7.47472H33.4848C33.7693 7.47472 34 7.23999 34 6.95049C34 6.66098 33.7693 6.42625 33.4848 6.42625C33.4359 6.42625 28.8566 6.42625 28.6427 6.42625V1.04847H29.865C30.1494 1.04847 30.3801 0.813744 30.3801 0.524237C30.3801 0.234729 30.1494 0 29.865 0C22.2897 0 17.0079 0 4.13505 0C3.85056 0 3.6199 0.234729 3.6199 0.524237C3.6199 0.813744 3.85056 1.04847 4.13505 1.04847H5.35702V6.42625C5.2232 6.42625 0.728299 6.42625 0.515152 6.42625C0.230661 6.42625 0 6.66098 0 6.95049C0 7.23999 0.230661 7.47472 0.515152 7.47472H1.72178V28.9515H0.515152ZM16.4838 28.9497H13.9081V18.0982H16.4838V28.9497ZM20.0899 28.9497H17.5141V18.0982H20.0899V28.9497ZM6.38733 1.04847H27.6124V6.42625H6.38733V1.04847ZM2.75209 7.47472C8.31053 7.47472 25.68 7.47472 31.2479 7.47472V28.9515H21.1202V17.574C21.1202 17.2844 20.8895 17.0497 20.6051 17.0497H13.3929C13.1084 17.0497 12.8778 17.2844 12.8778 17.574V28.9515H2.75209V7.47472Z" fill="#FB8500"/>
</svg>
