<svg width="34" height="30" viewBox="0 0 34 30" fill="none" xmlns="http://www.w3.org/2000/svg">
<path d="M1.46552 0C1.38778 7.10273e-06 1.31324 0.0282301 1.25827 0.0784615C1.2033 0.128693 1.17242 0.196819 1.17241 0.267857V27.8571H0.293103C0.21537 27.8571 0.140822 27.8854 0.0858566 27.9356C0.0308907 27.9858 7.76752e-06 28.054 0 28.125V29.7321C7.76752e-06 29.8032 0.0308907 29.8713 0.0858566 29.9215C0.140822 29.9718 0.21537 30 0.293103 30H14.9483C15.026 30 15.1006 29.9718 15.1555 29.9215C15.2105 29.8713 15.2414 29.8032 15.2414 29.7321V28.125C15.2414 28.054 15.2105 27.9858 15.1555 27.9356C15.1006 27.8854 15.026 27.8571 14.9483 27.8571H14.069V10.5919L19.931 13.6816V27.8571H19.0517C18.974 27.8571 18.8994 27.8854 18.8445 27.9356C18.7895 27.9858 18.7586 28.054 18.7586 28.125V29.7321C18.7586 29.8032 18.7895 29.8713 18.8445 29.9215C18.8994 29.9718 18.974 30 19.0517 30H33.7069C33.7846 30 33.8592 29.9718 33.9141 29.9215C33.9691 29.8713 34 29.8032 34 29.7321V28.125C34 28.054 33.9691 27.9858 33.9141 27.9356C33.8592 27.8854 33.7846 27.8571 33.7069 27.8571H32.8276V0.267857C32.8276 0.196819 32.7967 0.128693 32.7417 0.0784615C32.6868 0.0282301 32.6122 7.10273e-06 32.5345 0H20.2241C20.1464 7.10273e-06 20.0719 0.0282301 20.0169 0.0784615C19.9619 0.128693 19.931 0.196819 19.931 0.267857V9.7998L14.069 6.71003V0.267857C14.069 0.196819 14.0381 0.128693 13.9831 0.0784615C13.9281 0.0282301 13.8536 7.10273e-06 13.7759 0H1.46552ZM1.75862 0.535714H13.4828V6.86384C13.4827 6.91091 13.4962 6.95716 13.5219 6.99794C13.5477 7.03872 13.5847 7.07258 13.6293 7.09612L20.0776 10.4946C20.1222 10.5181 20.1727 10.5304 20.2242 10.5304C20.2757 10.5304 20.3263 10.518 20.3708 10.4945C20.4154 10.4709 20.4524 10.4371 20.4781 10.3963C20.5038 10.3555 20.5173 10.3093 20.5172 10.2623V0.535714H32.2414V27.8571H26.9655V19.0179C26.9655 18.9468 26.9346 18.8787 26.8797 18.8285C26.8247 18.7782 26.7501 18.75 26.6724 18.75H21.9828C21.905 18.75 21.8305 18.7782 21.7755 18.8285C21.7205 18.8787 21.6897 18.9468 21.6897 19.0179V27.8571H20.5172V13.5268C20.5171 13.4799 20.5035 13.4339 20.4778 13.3933C20.4521 13.3527 20.4151 13.319 20.3707 13.2955L13.9224 9.89711C13.8779 9.87364 13.8274 9.86127 13.7761 9.86124C13.7247 9.86122 13.6742 9.87353 13.6297 9.89695C13.5851 9.92037 13.5481 9.95408 13.5223 9.99469C13.4966 10.0353 13.4829 10.0814 13.4828 10.1283V27.8571H12.3103V19.0179C12.3103 18.9468 12.2795 18.8787 12.2245 18.8285C12.1695 18.7782 12.095 18.75 12.0172 18.75H7.32759C7.24985 18.75 7.17531 18.7782 7.12034 18.8285C7.06537 18.8787 7.03449 18.9468 7.03448 19.0179V27.8571H1.75862V0.535714ZM3.22414 2.14286C3.1464 2.14286 3.07186 2.17109 3.01689 2.22132C2.96193 2.27155 2.93104 2.33968 2.93103 2.41071V6.16071C2.93104 6.23175 2.96193 6.29988 3.01689 6.35011C3.07186 6.40034 3.1464 6.42856 3.22414 6.42857H6.74138C6.81911 6.42856 6.89366 6.40034 6.94863 6.35011C7.00359 6.29988 7.03448 6.23175 7.03448 6.16071V2.41071C7.03448 2.33968 7.00359 2.27155 6.94863 2.22132C6.89366 2.17109 6.81911 2.14286 6.74138 2.14286H3.22414ZM8.5 2.14286C8.42227 2.14286 8.34772 2.17109 8.29275 2.22132C8.23779 2.27155 8.2069 2.33968 8.2069 2.41071V6.16071C8.2069 6.23175 8.23779 6.29988 8.29275 6.35011C8.34772 6.40034 8.42227 6.42856 8.5 6.42857H12.0172C12.095 6.42856 12.1695 6.40034 12.2245 6.35011C12.2795 6.29988 12.3103 6.23175 12.3103 6.16071V2.41071C12.3103 2.33968 12.2795 2.27155 12.2245 2.22132C12.1695 2.17109 12.095 2.14286 12.0172 2.14286H8.5ZM21.9828 2.14286C21.905 2.14286 21.8305 2.17109 21.7755 2.22132C21.7205 2.27155 21.6897 2.33968 21.6897 2.41071V6.16071C21.6897 6.23175 21.7205 6.29988 21.7755 6.35011C21.8305 6.40034 21.905 6.42856 21.9828 6.42857H25.5C25.5777 6.42856 25.6523 6.40034 25.7072 6.35011C25.7622 6.29988 25.7931 6.23175 25.7931 6.16071V2.41071C25.7931 2.33968 25.7622 2.27155 25.7072 2.22132C25.6523 2.17109 25.5777 2.14286 25.5 2.14286H21.9828ZM27.2586 2.14286C27.1809 2.14286 27.1063 2.17109 27.0514 2.22132C26.9964 2.27155 26.9655 2.33968 26.9655 2.41071V6.16071C26.9655 6.23175 26.9964 6.29988 27.0514 6.35011C27.1063 6.40034 27.1809 6.42856 27.2586 6.42857H30.7759C30.8536 6.42856 30.9281 6.40034 30.9831 6.35011C31.0381 6.29988 31.069 6.23175 31.069 6.16071V2.41071C31.069 2.33968 31.0381 2.27155 30.9831 2.22132C30.9281 2.17109 30.8536 2.14286 30.7759 2.14286H27.2586ZM3.51724 2.67857H6.44828V5.89286H3.51724V2.67857ZM8.7931 2.67857H11.7241V5.89286H8.7931V2.67857ZM22.2759 2.67857H25.2069V5.89286H22.2759V2.67857ZM27.5517 2.67857H30.4828V5.89286H27.5517V2.67857ZM3.22414 7.5C3.1464 7.50001 3.07186 7.52823 3.01689 7.57846C2.96193 7.62869 2.93104 7.69682 2.93103 7.76786V11.5179C2.93104 11.5889 2.96193 11.657 3.01689 11.7073C3.07186 11.7575 3.1464 11.7857 3.22414 11.7857H6.74138C6.81911 11.7857 6.89366 11.7575 6.94863 11.7073C7.00359 11.657 7.03448 11.5889 7.03448 11.5179V7.76786C7.03448 7.69682 7.00359 7.62869 6.94863 7.57846C6.89366 7.52823 6.81911 7.50001 6.74138 7.5H3.22414ZM8.5 7.5C8.42227 7.50001 8.34772 7.52823 8.29275 7.57846C8.23779 7.62869 8.2069 7.69682 8.2069 7.76786V11.5179C8.2069 11.5889 8.23779 11.657 8.29275 11.7073C8.34772 11.7575 8.42227 11.7857 8.5 11.7857H12.0172C12.095 11.7857 12.1695 11.7575 12.2245 11.7073C12.2795 11.657 12.3103 11.5889 12.3103 11.5179V7.76786C12.3103 7.69682 12.2795 7.62869 12.2245 7.57846C12.1695 7.52823 12.095 7.50001 12.0172 7.5H8.5ZM21.9828 7.5C21.905 7.50001 21.8305 7.52823 21.7755 7.57846C21.7205 7.62869 21.6897 7.69682 21.6897 7.76786V11.5179C21.6897 11.5889 21.7205 11.657 21.7755 11.7073C21.8305 11.7575 21.905 11.7857 21.9828 11.7857H25.5C25.5777 11.7857 25.6523 11.7575 25.7072 11.7073C25.7622 11.657 25.7931 11.5889 25.7931 11.5179V7.76786C25.7931 7.69682 25.7622 7.62869 25.7072 7.57846C25.6523 7.52823 25.5777 7.50001 25.5 7.5H21.9828ZM27.2586 7.5C27.1809 7.50001 27.1063 7.52823 27.0514 7.57846C26.9964 7.62869 26.9655 7.69682 26.9655 7.76786V11.5179C26.9655 11.5889 26.9964 11.657 27.0514 11.7073C27.1063 11.7575 27.1809 11.7857 27.2586 11.7857H30.7759C30.8536 11.7857 30.9281 11.7575 30.9831 11.7073C31.0381 11.657 31.069 11.5889 31.069 11.5179V7.76786C31.069 7.69682 31.0381 7.62869 30.9831 7.57846C30.9281 7.52823 30.8536 7.50001 30.7759 7.5H27.2586ZM3.51724 8.03571H6.44828V11.25H3.51724V8.03571ZM8.7931 8.03571H11.7241V11.25H8.7931V8.03571ZM22.2759 8.03571H25.2069V11.25H22.2759V8.03571ZM27.5517 8.03571H30.4828V11.25H27.5517V8.03571ZM3.22414 12.8571C3.1464 12.8571 3.07186 12.8854 3.01689 12.9356C2.96193 12.9858 2.93104 13.054 2.93103 13.125V16.875C2.93104 16.946 2.96193 17.0142 3.01689 17.0644C3.07186 17.1146 3.1464 17.1428 3.22414 17.1429H6.74138C6.81911 17.1428 6.89366 17.1146 6.94863 17.0644C7.00359 17.0142 7.03448 16.946 7.03448 16.875V13.125C7.03448 13.054 7.00359 12.9858 6.94863 12.9356C6.89366 12.8854 6.81911 12.8571 6.74138 12.8571H3.22414ZM8.5 12.8571C8.42227 12.8571 8.34772 12.8854 8.29275 12.9356C8.23779 12.9858 8.2069 13.054 8.2069 13.125V16.875C8.2069 16.946 8.23779 17.0142 8.29275 17.0644C8.34772 17.1146 8.42227 17.1428 8.5 17.1429H12.0172C12.095 17.1428 12.1695 17.1146 12.2245 17.0644C12.2795 17.0142 12.3103 16.946 12.3103 16.875V13.125C12.3103 13.054 12.2795 12.9858 12.2245 12.9356C12.1695 12.8854 12.095 12.8571 12.0172 12.8571H8.5ZM21.9828 12.8571C21.905 12.8571 21.8305 12.8854 21.7755 12.9356C21.7205 12.9858 21.6897 13.054 21.6897 13.125V16.875C21.6897 16.946 21.7205 17.0142 21.7755 17.0644C21.8305 17.1146 21.905 17.1428 21.9828 17.1429H25.5C25.5777 17.1428 25.6523 17.1146 25.7072 17.0644C25.7622 17.0142 25.7931 16.946 25.7931 16.875V13.125C25.7931 13.054 25.7622 12.9858 25.7072 12.9356C25.6523 12.8854 25.5777 12.8571 25.5 12.8571H21.9828ZM27.2586 12.8571C27.1809 12.8571 27.1063 12.8854 27.0514 12.9356C26.9964 12.9858 26.9655 13.054 26.9655 13.125V16.875C26.9655 16.946 26.9964 17.0142 27.0514 17.0644C27.1063 17.1146 27.1809 17.1428 27.2586 17.1429H30.7759C30.8536 17.1428 30.9281 17.1146 30.9831 17.0644C31.0381 17.0142 31.069 16.946 31.069 16.875V13.125C31.069 13.054 31.0381 12.9858 30.9831 12.9356C30.9281 12.8854 30.8536 12.8571 30.7759 12.8571H27.2586ZM3.51724 13.3929H6.44828V16.6071H3.51724V13.3929ZM8.7931 13.3929H11.7241V16.6071H8.7931V13.3929ZM22.2759 13.3929H25.2069V16.6071H22.2759V13.3929ZM27.5517 13.3929H30.4828V16.6071H27.5517V13.3929ZM3.22414 18.2143C3.1464 18.2143 3.07186 18.2425 3.01689 18.2927C2.96193 18.343 2.93104 18.4111 2.93103 18.4821V22.2321C2.93104 22.3032 2.96193 22.3713 3.01689 22.4215C3.07186 22.4718 3.1464 22.5 3.22414 22.5H5.56897C5.6467 22.5 5.72125 22.4718 5.77621 22.4215C5.83118 22.3713 5.86206 22.3032 5.86207 22.2321V18.4821C5.86206 18.4111 5.83118 18.343 5.77621 18.2927C5.72125 18.2425 5.6467 18.2143 5.56897 18.2143H3.22414ZM28.431 18.2143C28.3533 18.2143 28.2788 18.2425 28.2238 18.2927C28.1688 18.343 28.1379 18.4111 28.1379 18.4821V22.2321C28.1379 22.3032 28.1688 22.3713 28.2238 22.4215C28.2788 22.4718 28.3533 22.5 28.431 22.5H30.7759C30.8536 22.5 30.9281 22.4718 30.9831 22.4215C31.0381 22.3713 31.069 22.3032 31.069 22.2321V18.4821C31.069 18.4111 31.0381 18.343 30.9831 18.2927C30.9281 18.2425 30.8536 18.2143 30.7759 18.2143H28.431ZM3.51724 18.75H5.27586V21.9643H3.51724V18.75ZM28.7241 18.75H30.4828V21.9643H28.7241V18.75ZM7.62069 19.2857H11.7241V27.8571H7.62069V19.2857ZM22.2759 19.2857H26.3793V27.8571H22.2759V19.2857ZM10.5735 23.4825C10.4959 23.4836 10.422 23.5127 10.368 23.5635C10.3139 23.6143 10.284 23.6826 10.285 23.7535V24.9107C10.2844 24.9462 10.2916 24.9814 10.3061 25.0144C10.3205 25.0473 10.3421 25.0773 10.3693 25.1026C10.3966 25.1279 10.4291 25.1479 10.4649 25.1616C10.5008 25.1753 10.5392 25.1824 10.5781 25.1824C10.6169 25.1824 10.6554 25.1753 10.6912 25.1616C10.727 25.1479 10.7595 25.1279 10.7868 25.1026C10.8141 25.0773 10.8356 25.0473 10.8501 25.0144C10.8645 24.9814 10.8717 24.9462 10.8712 24.9107V23.7535C10.8716 23.7177 10.8642 23.6822 10.8494 23.649C10.8346 23.6159 10.8127 23.5858 10.7849 23.5606C10.7572 23.5353 10.7242 23.5154 10.6878 23.502C10.6515 23.4886 10.6126 23.4819 10.5735 23.4825V23.4825ZM23.47 23.4825C23.3925 23.4836 23.3186 23.5127 23.2645 23.5635C23.2104 23.6143 23.1806 23.6826 23.1815 23.7535V24.9107C23.181 24.9462 23.1881 24.9814 23.2026 25.0144C23.2171 25.0473 23.2386 25.0773 23.2659 25.1026C23.2931 25.1279 23.3256 25.1479 23.3615 25.1616C23.3973 25.1753 23.4358 25.1824 23.4746 25.1824C23.5135 25.1824 23.5519 25.1753 23.5877 25.1616C23.6236 25.1479 23.6561 25.1279 23.6833 25.1026C23.7106 25.0773 23.7321 25.0473 23.7466 25.0144C23.7611 24.9814 23.7683 24.9462 23.7677 24.9107V23.7535C23.7682 23.7177 23.7608 23.6822 23.746 23.649C23.7312 23.6159 23.7092 23.5858 23.6815 23.5606C23.6537 23.5353 23.6207 23.5154 23.5844 23.502C23.5481 23.4886 23.5092 23.4819 23.47 23.4825V23.4825ZM0.586207 28.3929H1.46552H7.32759H13.7759H14.6552V29.4643H0.586207V28.3929ZM19.3448 28.3929H20.2241H21.9828H32.5345H33.4138V29.4643H19.3448V28.3929Z" fill="#FB8500"/>
</svg>
