<svg width="43" height="32" viewBox="0 0 43 32" fill="none" xmlns="http://www.w3.org/2000/svg">
<path d="M20.3274 12.3077C20.3274 12.5512 20.2356 12.7891 20.0638 12.9915C19.892 13.1939 19.6478 13.3517 19.3621 13.4448C19.0764 13.538 18.762 13.5624 18.4587 13.5149C18.1553 13.4674 17.8767 13.3502 17.658 13.178C17.4394 13.0059 17.2904 12.7866 17.2301 12.5479C17.1698 12.3091 17.2007 12.0616 17.3191 11.8367C17.4374 11.6119 17.6379 11.4196 17.895 11.2844C18.1521 11.1492 18.4544 11.077 18.7637 11.077C19.1784 11.077 19.5761 11.2066 19.8694 11.4375C20.1626 11.6683 20.3274 11.9813 20.3274 12.3077ZM42.7711 31.8198C42.6245 31.9352 42.4257 32 42.2183 32C42.011 32 41.8122 31.9352 41.6656 31.8198L37.8769 28.8377C36.5565 29.7321 34.9656 30.3436 33.2576 30.6133C31.5496 30.883 29.7821 30.8018 28.1255 30.3775C26.469 29.9532 24.9793 29.2001 23.8001 28.1909C22.6208 27.1816 21.7918 25.9503 21.393 24.6155H2.28995C1.68275 24.6152 1.10053 24.4252 0.67117 24.0872C0.24181 23.7492 0.000414193 23.291 0 22.813V6.11018C0.000414193 5.63223 0.24181 5.17396 0.67117 4.836C1.10053 4.49804 1.68275 4.30804 2.28995 4.30771H12.5091V1.80247C12.5096 1.32452 12.7509 0.866249 13.1803 0.528291C13.6097 0.190333 14.1919 0.00032602 14.7991 0H22.7283C23.3355 0.00032602 23.9177 0.190333 24.3471 0.528291C24.7765 0.866249 25.0179 1.32452 25.0183 1.80247V4.30771H35.2375C35.8447 4.30804 36.4269 4.49804 36.8562 4.836C37.2856 5.17396 37.527 5.63223 37.5274 6.11018V16.477C38.6107 17.1399 39.5115 17.9693 40.1749 18.9147C40.8384 19.8601 41.2507 20.9018 41.3867 21.9765C41.5228 23.0513 41.3799 24.1366 40.9665 25.1665C40.5532 26.1964 39.8782 27.1493 38.9824 27.9675L42.7711 30.9497C42.9177 31.0651 43 31.2216 43 31.3847C43 31.5479 42.9177 31.7044 42.7711 31.8198V31.8198ZM14.0728 4.30771H23.4546V1.80247C23.4544 1.6509 23.3778 1.50558 23.2417 1.3984C23.1055 1.29122 22.9209 1.23094 22.7283 1.23077H14.7991C14.6065 1.23094 14.4219 1.29122 14.2857 1.3984C14.1496 1.50558 14.073 1.6509 14.0728 1.80247V4.30771ZM1.56364 6.11018V10.7114C4.13114 11.776 19.4775 17.5256 35.9638 10.7004V6.11018C35.9636 5.95861 35.887 5.81329 35.7508 5.70611C35.6147 5.59893 35.43 5.53865 35.2375 5.53848H2.28995C2.09739 5.53865 1.91277 5.59893 1.7766 5.70611C1.64044 5.81329 1.56385 5.95861 1.56364 6.11018V6.11018ZM21.149 23.3847C21.1287 23.181 21.1092 22.9773 21.1092 22.7693H3.90911C3.70175 22.7693 3.50289 22.7045 3.35628 22.5891C3.20966 22.4737 3.12728 22.3171 3.12728 22.1539V20.3078C3.12728 20.1446 3.20966 19.988 3.35628 19.8726C3.50289 19.7572 3.70175 19.6924 3.90911 19.6924H21.891C22.4304 18.6687 23.2348 17.7446 24.2528 16.9789C25.2708 16.2133 26.4803 15.6229 27.8041 15.2454C29.1279 14.8678 30.5371 14.7114 31.9419 14.786C33.3467 14.8606 34.7164 15.1647 35.9638 15.6788V12.0905C30.7497 14.1562 24.9919 15.2285 19.1546 15.221C13.0706 15.2011 7.06609 14.1319 1.56364 12.0887V22.813C1.56385 22.9646 1.64044 23.1099 1.7766 23.2171C1.91277 23.3243 2.09739 23.3845 2.28995 23.3847H21.149ZM21.393 20.9232H4.69093V21.5385H21.2421C21.2835 21.3305 21.332 21.1256 21.393 20.9232ZM39.8729 22.7693C39.8729 21.4305 39.3685 20.1217 38.4235 19.0085C37.4785 17.8953 36.1354 17.0277 34.5639 16.5153C32.9925 16.003 31.2633 15.8689 29.5951 16.1301C27.9268 16.3913 26.3944 17.036 25.1917 17.9827C23.989 18.9294 23.1699 20.1356 22.8381 21.4487C22.5062 22.7618 22.6765 24.1229 23.3275 25.3598C23.9784 26.5967 25.0807 27.6539 26.4949 28.3978C27.9092 29.1416 29.5719 29.5386 31.2728 29.5386C33.5529 29.5365 35.7388 28.8226 37.351 27.5536C38.9633 26.2846 39.8702 24.564 39.8729 22.7693ZM31.2728 17.2308C31.0655 17.2308 30.8666 17.2957 30.72 17.4111C30.5734 17.5265 30.491 17.683 30.491 17.8462C30.491 18.0094 30.5734 18.166 30.72 18.2814C30.8666 18.3968 31.0655 18.4616 31.2728 18.4616C32.7237 18.4631 34.1147 18.9174 35.1406 19.7249C36.1665 20.5325 36.7437 21.6273 36.7456 22.7693C36.7456 22.9325 36.828 23.0891 36.9746 23.2045C37.1212 23.3199 37.3201 23.3847 37.5274 23.3847C37.7348 23.3847 37.9336 23.3199 38.0802 23.2045C38.2269 23.0891 38.3092 22.9325 38.3092 22.7693C38.3072 21.3009 37.5652 19.8931 36.246 18.8548C34.9269 17.8165 33.1384 17.2325 31.2728 17.2308ZM3.12728 9.84619C3.33464 9.84619 3.5335 9.78136 3.68012 9.66595C3.82674 9.55054 3.90911 9.39402 3.90911 9.23081V7.38465H7.81821C8.02556 7.38465 8.22442 7.31981 8.37104 7.2044C8.51766 7.089 8.60003 6.93247 8.60003 6.76926C8.60003 6.60605 8.51766 6.44952 8.37104 6.33411C8.22442 6.21871 8.02556 6.15387 7.81821 6.15387H3.12728C2.91993 6.15387 2.72107 6.21871 2.57445 6.33411C2.42783 6.44952 2.34546 6.60605 2.34546 6.76926V9.23081C2.34546 9.39402 2.42783 9.55054 2.57445 9.66595C2.72107 9.78136 2.91993 9.84619 3.12728 9.84619ZM29.7092 7.38465H33.6183V9.23081C33.6183 9.39402 33.7007 9.55054 33.8473 9.66595C33.9939 9.78136 34.1928 9.84619 34.4001 9.84619C34.6075 9.84619 34.8063 9.78136 34.953 9.66595C35.0996 9.55054 35.182 9.39402 35.182 9.23081V6.76926C35.182 6.60605 35.0996 6.44952 34.953 6.33411C34.8063 6.21871 34.6075 6.15387 34.4001 6.15387H29.7092C29.5019 6.15387 29.303 6.21871 29.1564 6.33411C29.0098 6.44952 28.9274 6.60605 28.9274 6.76926C28.9274 6.93247 29.0098 7.089 29.1564 7.2044C29.303 7.31981 29.5019 7.38465 29.7092 7.38465ZM14.8546 7.38465H22.6728C22.8802 7.38465 23.079 7.31981 23.2256 7.2044C23.3723 7.089 23.4546 6.93247 23.4546 6.76926C23.4546 6.60605 23.3723 6.44952 23.2256 6.33411C23.079 6.21871 22.8802 6.15387 22.6728 6.15387H14.8546C14.6473 6.15387 14.4484 6.21871 14.3018 6.33411C14.1552 6.44952 14.0728 6.60605 14.0728 6.76926C14.0728 6.93247 14.1552 7.089 14.3018 7.2044C14.4484 7.31981 14.6473 7.38465 14.8546 7.38465Z" fill="#FB8500"/>
</svg>
