<svg width="20" height="31" viewBox="0 0 20 31" fill="none" xmlns="http://www.w3.org/2000/svg">
<path d="M17.6906 0H2.30937C1.69688 0 1.10949 0.216377 0.676398 0.601529C0.243308 0.986682 0 1.50906 0 2.05375V28.9462C0 29.4909 0.243308 30.0133 0.676398 30.3985C1.10949 30.7836 1.69688 31 2.30937 31H17.6906C18.3031 31 18.8905 30.7836 19.3236 30.3985C19.7567 30.0133 20 29.4909 20 28.9462V2.05375C20 1.50906 19.7567 0.986682 19.3236 0.601529C18.8905 0.216377 18.3031 0 17.6906 0V0ZM18.9107 28.9462C18.9092 29.2336 18.7802 29.5089 18.5517 29.7121C18.3233 29.9153 18.0138 30.03 17.6906 30.0312H2.30937C1.98623 30.03 1.67674 29.9153 1.44825 29.7121C1.21976 29.5089 1.09076 29.2336 1.08932 28.9462V2.05375C1.09076 1.76638 1.21976 1.49115 1.44825 1.28795C1.67674 1.08475 1.98623 0.970024 2.30937 0.96875H17.6906C18.0138 0.970024 18.3233 1.08475 18.5517 1.28795C18.7802 1.49115 18.9092 1.76638 18.9107 2.05375V28.9462ZM11.634 27.2897H8.42048C8.16769 27.2897 7.92525 27.379 7.74649 27.538C7.56774 27.6969 7.46732 27.9125 7.46732 28.1373V28.52C7.46875 28.7444 7.56963 28.9593 7.74807 29.118C7.92652 29.2767 8.16813 29.3664 8.42048 29.3677H11.634C11.8863 29.3664 12.1279 29.2767 12.3064 29.118C12.4848 28.9593 12.5857 28.7444 12.5871 28.52V28.1373C12.5871 27.9125 12.4867 27.6969 12.308 27.538C12.1292 27.379 11.8868 27.2897 11.634 27.2897V27.2897ZM12.0425 28.52C12.0411 28.616 11.9976 28.7076 11.9213 28.7755C11.845 28.8434 11.7419 28.882 11.634 28.8833H8.42048C8.31258 28.882 8.20949 28.8434 8.13319 28.7755C8.05688 28.7076 8.01339 28.616 8.01198 28.52V28.1373C8.01198 28.041 8.05502 27.9486 8.13163 27.8805C8.20824 27.8123 8.31214 27.7741 8.42048 27.7741H11.634C11.7423 27.7741 11.8462 27.8123 11.9228 27.8805C11.9994 27.9486 12.0425 28.041 12.0425 28.1373V28.52ZM2.1024 26.8828H17.8976V4.11719H2.1024V26.8828ZM2.64706 4.60156H17.3529V26.3984H2.64706V4.60156ZM7.54902 2.90625C7.54902 2.84202 7.57771 2.78042 7.62878 2.735C7.67985 2.68958 7.74912 2.66406 7.82135 2.66406H12.1786C12.2509 2.66406 12.3201 2.68958 12.3712 2.735C12.4223 2.78042 12.451 2.84202 12.451 2.90625C12.451 2.97048 12.4223 3.03208 12.3712 3.0775C12.3201 3.12292 12.2509 3.14844 12.1786 3.14844H7.82135C7.74912 3.14844 7.67985 3.12292 7.62878 3.0775C7.57771 3.03208 7.54902 2.97048 7.54902 2.90625ZM15.9913 2.90625C15.9913 2.82865 16.0172 2.7528 16.0656 2.68828C16.1141 2.62375 16.183 2.57347 16.2636 2.54377C16.3442 2.51408 16.433 2.50631 16.5185 2.52145C16.6041 2.53658 16.6827 2.57395 16.7444 2.62882C16.8061 2.68369 16.8481 2.7536 16.8652 2.82971C16.8822 2.90581 16.8734 2.9847 16.8401 3.05639C16.8067 3.12808 16.7501 3.18936 16.6776 3.23247C16.605 3.27558 16.5197 3.29859 16.4325 3.29859C16.3745 3.29859 16.3172 3.28845 16.2636 3.26873C16.2101 3.24901 16.1615 3.22011 16.1205 3.18368C16.0795 3.14725 16.047 3.10399 16.0249 3.05639C16.0027 3.00879 15.9913 2.95777 15.9913 2.90625V2.90625ZM15.1743 2.90625C15.1743 2.85835 15.1903 2.81153 15.2202 2.7717C15.2501 2.73187 15.2926 2.70083 15.3424 2.6825C15.3922 2.66417 15.4469 2.65937 15.4998 2.66872C15.5526 2.67806 15.6011 2.70113 15.6392 2.735C15.6773 2.76887 15.7032 2.81202 15.7137 2.859C15.7242 2.90598 15.7188 2.95468 15.6982 2.99893C15.6776 3.04319 15.6427 3.08101 15.5979 3.10762C15.5531 3.13423 15.5005 3.14844 15.4466 3.14844C15.3744 3.14844 15.3051 3.12292 15.2541 3.0775C15.203 3.03208 15.1743 2.97048 15.1743 2.90625ZM17.3965 28.5006C17.3743 28.7196 17.2562 28.922 17.0677 29.0643C16.8793 29.2066 16.6354 29.2772 16.3889 29.2611H15.2996C15.2447 29.2611 15.192 29.2417 15.1532 29.2072C15.1144 29.1727 15.0926 29.1258 15.0926 29.077C15.0926 29.0531 15.098 29.0294 15.1084 29.0073C15.1189 28.9852 15.1342 28.9653 15.1535 28.9486C15.1728 28.9319 15.1957 28.9188 15.2208 28.91C15.2459 28.9013 15.2726 28.8972 15.2996 28.8978H16.3889C16.7157 28.8978 16.988 28.7138 16.988 28.5006C16.988 28.2875 16.7157 28.1034 16.3889 28.1034H15.0054L15.1144 28.1858C15.1396 28.1999 15.161 28.2186 15.1773 28.2408C15.1936 28.263 15.2044 28.288 15.2088 28.3141C15.2132 28.3403 15.2112 28.367 15.203 28.3925C15.1948 28.4179 15.1805 28.4415 15.1611 28.4615C15.1417 28.4816 15.1176 28.4977 15.0906 28.5088C15.0635 28.5198 15.0341 28.5256 15.0044 28.5256C14.9746 28.5256 14.9452 28.52 14.9181 28.509C14.891 28.498 14.867 28.4819 14.8475 28.4619L14.3028 28.0598C14.2863 28.0327 14.2753 28.0032 14.2702 27.9727C14.2675 27.9598 14.2675 27.9467 14.2702 27.9339C14.2702 27.9339 14.2702 27.9339 14.2702 27.9C14.2816 27.8818 14.2963 27.8655 14.3137 27.8516C14.3137 27.8516 14.3137 27.8516 14.3137 27.8516L14.8584 27.435C14.8988 27.4035 14.9517 27.3876 15.0053 27.3908C15.0589 27.394 15.1089 27.416 15.1443 27.452C15.1797 27.4879 15.1976 27.5349 15.194 27.5826C15.1905 27.6303 15.1657 27.6748 15.1253 27.7063L15 27.808H16.3998C16.6329 27.7929 16.8641 27.8554 17.0483 27.9834C17.2325 28.1115 17.3566 28.2958 17.3965 28.5006V28.5006ZM5.16884 27.8564C5.16885 27.8804 5.16347 27.9041 5.153 27.9261C5.14253 27.9482 5.1272 27.9682 5.10791 27.9849C5.08861 28.0016 5.06575 28.0147 5.04067 28.0234C5.01559 28.0321 4.98879 28.0363 4.96187 28.0356H3.32789C3.30122 28.0363 3.27468 28.0321 3.24989 28.0233C3.2251 28.0146 3.20258 28.0014 3.18371 27.9846C3.16485 27.9678 3.15003 27.9478 3.14017 27.9258C3.13031 27.9037 3.12561 27.8801 3.12636 27.8564C3.12563 27.8325 3.13031 27.8086 3.14011 27.7863C3.14991 27.764 3.16464 27.7437 3.18343 27.7265C3.20221 27.7094 3.22467 27.6957 3.24949 27.6864C3.2743 27.6771 3.30096 27.6723 3.32789 27.6723H4.96187C5.01677 27.6723 5.06941 27.6917 5.10822 27.7263C5.14704 27.7608 5.16884 27.8076 5.16884 27.8564V27.8564ZM5.16884 28.3408C5.16885 28.3647 5.16347 28.3884 5.153 28.4105C5.14253 28.4326 5.1272 28.4525 5.10791 28.4693C5.08861 28.486 5.06575 28.4991 5.04067 28.5078C5.01559 28.5165 4.98879 28.5206 4.96187 28.52H3.32789C3.30122 28.5207 3.27468 28.5165 3.24989 28.5077C3.2251 28.499 3.20258 28.4858 3.18371 28.469C3.16485 28.4522 3.15003 28.4322 3.14017 28.4101C3.13031 28.3881 3.12561 28.3645 3.12636 28.3408C3.12563 28.3168 3.13031 28.293 3.14011 28.2707C3.14991 28.2484 3.16464 28.2281 3.18343 28.2109C3.20221 28.1938 3.22467 28.1801 3.24949 28.1708C3.2743 28.1615 3.30096 28.1567 3.32789 28.1567H4.96187C4.98905 28.1567 5.01597 28.1615 5.04108 28.1707C5.06619 28.18 5.089 28.1935 5.10822 28.2106C5.12744 28.2277 5.14269 28.248 5.15309 28.2703C5.16349 28.2927 5.16884 28.3166 5.16884 28.3408V28.3408ZM5.16884 28.8252C5.16885 28.8491 5.16347 28.8728 5.153 28.8949C5.14253 28.9169 5.1272 28.9369 5.10791 28.9536C5.08861 28.9703 5.06575 28.9834 5.04067 28.9921C5.01559 29.0009 4.98879 29.005 4.96187 29.0044H3.32789C3.30122 29.005 3.27468 29.0009 3.24989 28.9921C3.2251 28.9833 3.20258 28.9701 3.18371 28.9534C3.16485 28.9366 3.15003 28.9166 3.14017 28.8945C3.13031 28.8725 3.12561 28.8489 3.12636 28.8252C3.12563 28.8012 3.13031 28.7774 3.14011 28.7551C3.14991 28.7328 3.16464 28.7124 3.18343 28.6953C3.20221 28.6781 3.22467 28.6645 3.24949 28.6552C3.2743 28.6459 3.30096 28.6411 3.32789 28.6411H4.96187C5.01677 28.6411 5.06941 28.6605 5.10822 28.695C5.14704 28.7295 5.16884 28.7763 5.16884 28.8252V28.8252Z" fill="#FB8500"/>
</svg>
