<svg width="30" height="30" viewBox="0 0 30 30" fill="none" xmlns="http://www.w3.org/2000/svg">
<path d="M12.5 8H12.2V4.5C12.2 4.2 12 4 11.7 4H5.3C5 4 4.8 4.2 4.8 4.5V8H4.5C4.2 8 4 8.2 4 8.5C4 8.8 4.2 9 4.5 9H4.8V10.5C4.8 10.8 5 11 5.3 11H11.7C12 11 12.2 10.8 12.2 10.5V9H12.5C12.8 9 13 8.8 13 8.5C13 8.2 12.8 8 12.5 8ZM11.2 8H10.2V5H11.2V8ZM7.8 8V5H9.2V8H7.8ZM5.8 5H6.8V8H5.8V5ZM11.2 10H5.8V9H11.2V10ZM17.5 9H17.8V10.5C17.8 10.8 18 11 18.3 11H24.7C25 11 25.2 10.8 25.2 10.5V9H25.5C25.8 9 26 8.8 26 8.5C26 8.2 25.8 8 25.5 8H25.2V4.5C25.2 4.2 25 4 24.7 4H18.3C18 4 17.8 4.2 17.8 4.5V8H17.5C17.2 8 17 8.2 17 8.5C17 8.8 17.2 9 17.5 9ZM24.2 10H18.8V9H24.2V10ZM20.8 8V5H22.2V8H20.8ZM24.2 8H23.2V5H24.2V8ZM18.8 5H19.8V8H18.8V5ZM12.5 16H12.2V12.5C12.2 12.2 12 12 11.7 12H5.3C5 12 4.8 12.2 4.8 12.5V16H4.5C4.2 16 4 16.2 4 16.5C4 16.8 4.2 17 4.5 17H4.8V18.5C4.8 18.8 5 19 5.3 19H11.7C12 19 12.2 18.8 12.2 18.5V17H12.5C12.8 17 13 16.8 13 16.5C13 16.2 12.8 16 12.5 16ZM11.2 16H10.2V13H11.2V16ZM5.8 13H9.2V16H5.8V13ZM11.2 18H5.8V17H11.2V18ZM25.2 18.5V17H25.5C25.8 17 26 16.8 26 16.5C26 16.2 25.8 16 25.5 16H25.2V12.5C25.2 12.2 25 12 24.7 12H18.3C18 12 17.8 12.2 17.8 12.5V16H17.5C17.2 16 17 16.2 17 16.5C17 16.8 17.2 17 17.5 17H17.8V18.5C17.8 18.8 18 19 18.3 19H24.7C25 19 25.2 18.8 25.2 18.5ZM24.2 16H23.2V13H24.2V16ZM20.8 16V13H22.2V16H20.8ZM18.8 13H19.8V16H18.8V13ZM24.2 18H18.8V17H24.2V18Z" fill="#FB8500"/>
<path d="M29.5 0H0.5C0.2 0 0 0.2 0 0.5C0 0.8 0.2 1 0.5 1H2V29.5C2 29.8 2.2 30 2.5 30H27.5C27.8 30 28 29.8 28 29.5V1H29.5C29.8 1 30 0.8 30 0.5C30 0.2 29.8 0 29.5 0ZM18.5 21H11.5C11.2 21 11 21.2 11 21.5V27H3V3H27V27H19V21.5C19 21.2 18.8 21 18.5 21ZM27 2H3V1H27V2ZM3 28H11V29H3V28ZM12 27.5V22H14.5V25C14.2 25 14 25.2 14 25.5C14 25.8 14.2 26 14.5 26V29H12V27.5ZM15.5 26C15.8 26 16 25.8 16 25.5C16 25.2 15.8 25 15.5 25V22H18V29H15.5V26ZM27 29H19V28H27V29Z" fill="#FB8500"/>
</svg>
