<svg width="48" height="31" viewBox="0 0 48 31" fill="none" xmlns="http://www.w3.org/2000/svg">
<path d="M44 10.8352L43.72 10.3333C44.114 10.3333 44.5041 10.2761 44.868 10.1648C45.232 10.0535 45.5627 9.8904 45.8413 9.68478C46.1199 9.47917 46.3409 9.23507 46.4916 8.96642C46.6424 8.69777 46.72 8.40983 46.72 8.11905C46.72 7.82826 46.6424 7.54033 46.4916 7.27168C46.3409 7.00303 46.1199 6.75893 45.8413 6.55331C45.5627 6.3477 45.232 6.18459 44.868 6.07331C44.5041 5.96204 44.114 5.90476 43.72 5.90476H41.26L39.02 1.78619C38.574 1.24253 37.9461 0.792672 37.1966 0.479861C36.447 0.167051 35.6011 0.00180294 34.74 0H13.26C12.3706 0.0065805 11.4993 0.186074 10.7339 0.520393C9.96841 0.854712 9.33588 1.33204 8.9 1.90429L6.72 5.90476H4.24C3.84603 5.90476 3.45593 5.96204 3.09195 6.07331C2.72797 6.18459 2.39726 6.3477 2.11868 6.55331C1.8401 6.75893 1.61913 7.00303 1.46836 7.27168C1.3176 7.54033 1.24 7.82826 1.24 8.11905C1.24 8.40983 1.3176 8.69777 1.46836 8.96642C1.61913 9.23507 1.8401 9.47917 2.11868 9.68478C2.39726 9.8904 2.72797 10.0535 3.09195 10.1648C3.45593 10.2761 3.84603 10.3333 4.24 10.3333V10.3333L4 10.8352C2.80386 11.254 1.79315 11.9146 1.08514 12.7402C0.377129 13.5659 0.000861766 14.5229 1.04228e-07 15.5V22.881C-0.000235151 23.7317 0.397783 24.5564 1.12669 25.2155C1.8556 25.8745 2.87064 26.3275 4 26.4976V28.7857C4 29.373 4.31607 29.9362 4.87868 30.3514C5.44129 30.7667 6.20435 31 7 31H9C9.79565 31 10.5587 30.7667 11.1213 30.3514C11.6839 29.9362 12 29.373 12 28.7857V26.5714H36V28.7857C36 29.373 36.3161 29.9362 36.8787 30.3514C37.4413 30.7667 38.2044 31 39 31H41C41.7956 31 42.5587 30.7667 43.1213 30.3514C43.6839 29.9362 44 29.373 44 28.7857V26.4976C45.1294 26.3275 46.1444 25.8745 46.8733 25.2155C47.6022 24.5564 48.0002 23.7317 48 22.881V15.5C47.9991 14.5229 47.6229 13.5659 46.9149 12.7402C46.2069 11.9146 45.1961 11.254 44 10.8352V10.8352ZM43.76 7.38095C43.9474 7.38068 44.1312 7.41928 44.2903 7.49236C44.4494 7.56544 44.5775 7.67006 44.66 7.79429C44.7348 7.90693 44.7694 8.03177 44.7607 8.15704C44.7519 8.28231 44.7001 8.40387 44.61 8.51024C44.5199 8.61661 44.3946 8.70428 44.2459 8.76498C44.0972 8.82567 43.9299 8.85739 43.76 8.85714H42.86L42.06 7.38095H43.76ZM6.72 9.89048L8.32 6.93809L10.68 2.50952C10.9555 2.18956 11.337 1.92675 11.7885 1.74593C12.2399 1.56512 12.7464 1.47228 13.26 1.47619H34.74C35.2331 1.47443 35.7192 1.56241 36.1552 1.73235C36.5913 1.90229 36.9639 2.14894 37.24 2.45048L41.52 10.3333H6.48L6.72 9.89048ZM4.24 8.85714C3.97478 8.85714 3.72043 8.77938 3.53289 8.64096C3.34536 8.50254 3.24 8.3148 3.24 8.11905C3.24 7.92329 3.34536 7.73556 3.53289 7.59714C3.72043 7.45872 3.97478 7.38095 4.24 7.38095H6L5.2 8.85714H4.24ZM10 28.7857C10 28.9815 9.89464 29.1692 9.70711 29.3076C9.51957 29.446 9.26522 29.5238 9 29.5238H7C6.73478 29.5238 6.48043 29.446 6.29289 29.3076C6.10536 29.1692 6 28.9815 6 28.7857V26.5714H10V28.7857ZM15.22 25.0952L16.38 20.6667H31.66L32.82 25.0952H15.22ZM42 28.7857C42 28.9815 41.8946 29.1692 41.7071 29.3076C41.5196 29.446 41.2652 29.5238 41 29.5238H39C38.7348 29.5238 38.4804 29.446 38.2929 29.3076C38.1054 29.1692 38 28.9815 38 28.7857V26.5714H42V28.7857ZM46 22.881C46 23.4682 45.6839 24.0314 45.1213 24.4467C44.5587 24.8619 43.7956 25.0952 43 25.0952H34.82L33.44 19.7957C33.398 19.6263 33.277 19.473 33.0981 19.3625C32.9191 19.252 32.6934 19.1911 32.46 19.1905H15.54C15.3066 19.1911 15.0809 19.252 14.9019 19.3625C14.723 19.473 14.602 19.6263 14.56 19.7957L13.18 25.0952H5C4.20435 25.0952 3.44129 24.8619 2.87868 24.4467C2.31607 24.0314 2 23.4682 2 22.881V15.5C2 14.5212 2.52678 13.5825 3.46447 12.8904C4.40215 12.1983 5.67392 11.8095 7 11.8095H41C42.3261 11.8095 43.5979 12.1983 44.5355 12.8904C45.4732 13.5825 46 14.5212 46 15.5V22.881ZM13 13.2857H7C6.20435 13.2857 5.44129 13.519 4.87868 13.9343C4.31607 14.3495 4 14.9127 4 15.5V16.9762C4 17.1719 4.10536 17.3597 4.29289 17.4981C4.48043 17.6365 4.73478 17.7143 5 17.7143H13C13.2652 17.7143 13.5196 17.6365 13.7071 17.4981C13.8946 17.3597 14 17.1719 14 16.9762V14.0238C14 13.8281 13.8946 13.6403 13.7071 13.5019C13.5196 13.3635 13.2652 13.2857 13 13.2857ZM12 16.2381H6V15.5C6 15.3042 6.10536 15.1165 6.29289 14.9781C6.48043 14.8397 6.73478 14.7619 7 14.7619H12V16.2381ZM7 19.1905C6.40666 19.1905 5.82664 19.3203 5.33329 19.5636C4.83994 19.807 4.45542 20.1528 4.22836 20.5574C4.0013 20.962 3.94189 21.4072 4.05764 21.8367C4.1734 22.2663 4.45912 22.6608 4.87868 22.9705C5.29824 23.2802 5.83279 23.4911 6.41473 23.5765C6.99667 23.6619 7.59987 23.6181 8.14805 23.4505C8.69623 23.2829 9.16476 22.9991 9.49441 22.635C9.82405 22.2708 10 21.8427 10 21.4048C10 20.8175 9.68393 20.2543 9.12132 19.839C8.55871 19.4238 7.79565 19.1905 7 19.1905ZM7 22.1429C6.80222 22.1429 6.60888 22.0996 6.44443 22.0185C6.27998 21.9374 6.15181 21.8221 6.07612 21.6872C6.00043 21.5523 5.98063 21.4039 6.01921 21.2608C6.0578 21.1176 6.15304 20.9861 6.29289 20.8828C6.43275 20.7796 6.61093 20.7093 6.80491 20.6808C6.99889 20.6524 7.19996 20.667 7.38268 20.7229C7.56541 20.7787 7.72159 20.8733 7.83147 20.9947C7.94135 21.1161 8 21.2588 8 21.4048C8 21.6005 7.89464 21.7883 7.70711 21.9267C7.51957 22.0651 7.26522 22.1429 7 22.1429ZM29 14.7619H21C20.7348 14.7619 20.4804 14.8397 20.2929 14.9781C20.1054 15.1165 20 15.3042 20 15.5C20 15.6958 20.1054 15.8835 20.2929 16.0219C20.4804 16.1603 20.7348 16.2381 21 16.2381H29C29.2652 16.2381 29.5196 16.1603 29.7071 16.0219C29.8946 15.8835 30 15.6958 30 15.5C30 15.3042 29.8946 15.1165 29.7071 14.9781C29.5196 14.8397 29.2652 14.7619 29 14.7619ZM41 13.2857H35C34.7348 13.2857 34.4804 13.3635 34.2929 13.5019C34.1054 13.6403 34 13.8281 34 14.0238V16.9762C34 17.1719 34.1054 17.3597 34.2929 17.4981C34.4804 17.6365 34.7348 17.7143 35 17.7143H43C43.2652 17.7143 43.5196 17.6365 43.7071 17.4981C43.8946 17.3597 44 17.1719 44 16.9762V15.5C44 14.9127 43.6839 14.3495 43.1213 13.9343C42.5587 13.519 41.7956 13.2857 41 13.2857ZM42 16.2381H36V14.7619H41C41.2652 14.7619 41.5196 14.8397 41.7071 14.9781C41.8946 15.1165 42 15.3042 42 15.5V16.2381ZM41 19.1905C40.4067 19.1905 39.8266 19.3203 39.3333 19.5636C38.8399 19.807 38.4554 20.1528 38.2284 20.5574C38.0013 20.962 37.9419 21.4072 38.0576 21.8367C38.1734 22.2663 38.4591 22.6608 38.8787 22.9705C39.2982 23.2802 39.8328 23.4911 40.4147 23.5765C40.9967 23.6619 41.5999 23.6181 42.148 23.4505C42.6962 23.2829 43.1648 22.9991 43.4944 22.635C43.8241 22.2708 44 21.8427 44 21.4048C44 20.8175 43.6839 20.2543 43.1213 19.839C42.5587 19.4238 41.7956 19.1905 41 19.1905ZM41 22.1429C40.8022 22.1429 40.6089 22.0996 40.4444 22.0185C40.28 21.9374 40.1518 21.8221 40.0761 21.6872C40.0004 21.5523 39.9806 21.4039 40.0192 21.2608C40.0578 21.1176 40.153 20.9861 40.2929 20.8828C40.4327 20.7796 40.6109 20.7093 40.8049 20.6808C40.9989 20.6524 41.2 20.667 41.3827 20.7229C41.5654 20.7787 41.7216 20.8733 41.8315 20.9947C41.9414 21.1161 42 21.2588 42 21.4048C42 21.6005 41.8946 21.7883 41.7071 21.9267C41.5196 22.0651 41.2652 22.1429 41 22.1429Z" fill="#FB8500"/>
</svg>
