<svg width="29" height="30" viewBox="0 0 29 30" fill="none" xmlns="http://www.w3.org/2000/svg">
<path d="M21.365 3.4918C20.965 2.58197 19.395 0 14.5 0C9.605 0 8.035 2.58197 7.635 3.4918C0.0900002 4.72623 0 10.7607 0 10.8197L0.5 25.6279C0.502966 25.7219 0.533275 25.8131 0.587333 25.8907C0.641392 25.9682 0.716933 26.0289 0.805 26.0656L0.995 26.1344V27.541C0.995426 27.622 1.01619 27.7016 1.05544 27.7728C1.09469 27.8441 1.15122 27.9046 1.22 27.9492C1.86739 28.3132 2.60467 28.4937 3.35 28.4705C4.05721 28.4599 4.75735 28.3301 5.42 28.0869C6.185 28.5787 8.92 30 14.495 30C20.07 30 22.805 28.5738 23.57 28.0869C24.2326 28.3302 24.9328 28.46 25.64 28.4705C26.3853 28.4934 27.1225 28.313 27.77 27.9492C27.8397 27.9052 27.8972 27.8449 27.9374 27.7736C27.9775 27.7024 27.999 27.6224 28 27.541V26.1295L28.19 26.0607C28.2781 26.024 28.3536 25.9633 28.4077 25.8857C28.4617 25.8082 28.492 25.717 28.495 25.623L29 10.8197C29 10.7607 28.91 4.72623 21.365 3.4918ZM5 27.1918C4.04027 27.571 2.97205 27.5885 2 27.241V26.4246C2.42096 26.5116 2.84985 26.5561 3.28 26.5574C3.86204 26.5575 4.44115 26.4764 5 26.3164V27.1918ZM23 27.2803C22.315 27.6984 19.745 29.0164 14.5 29.0164C9.255 29.0164 6.68 27.6984 6 27.2803V25.9525C7.215 26.5574 9.875 27.541 14.5 27.541C19.125 27.541 21.785 26.5574 23 25.9525V27.2803ZM8.5 25.8344V23.5033C9.28004 23.306 9.98135 22.8816 10.5122 22.2858C11.043 21.69 11.3786 20.9504 11.475 20.1639H17.025C17.1214 20.9504 17.457 21.69 17.9878 22.2858C18.5186 22.8816 19.22 23.306 20 23.5033V25.9623C18.198 26.3791 16.3511 26.5789 14.5 26.5574C12.4757 26.5891 10.4567 26.3458 8.5 25.8344V25.8344ZM27 27.241C26.028 27.5885 24.9597 27.571 24 27.1918V26.3164C24.5589 26.4764 25.138 26.5575 25.72 26.5574C26.1502 26.5561 26.579 26.5116 27 26.4246V27.241ZM27.5 25.2738C26.3687 25.6736 25.1313 25.6736 24 25.2738V10.8197H23V24.8213C22.3707 25.187 21.6993 25.4776 21 25.6869V23.1148C21.0015 22.9969 20.96 22.8824 20.8829 22.7921C20.8058 22.7018 20.6983 22.6418 20.58 22.623C20.5 22.623 18 22.1754 18 19.6721C18 19.5417 17.9473 19.4166 17.8536 19.3244C17.7598 19.2321 17.6326 19.1803 17.5 19.1803H11C10.8674 19.1803 10.7402 19.2321 10.6464 19.3244C10.5527 19.4166 10.5 19.5417 10.5 19.6721C10.5 22.1607 8 22.623 7.92 22.623C7.80169 22.6418 7.6942 22.7018 7.61711 22.7921C7.54002 22.8824 7.49846 22.9969 7.5 23.1148V25.5148C6.97794 25.3329 6.47549 25.1006 6 24.8213V10.8197H5V25.2836C3.86803 25.6794 2.63197 25.6794 1.5 25.2836L1 10.8197C1.05873 9.83349 1.35708 8.87555 1.87 8.02623C2.945 6.21148 4.81 5.0459 7.405 4.53934C7.35369 5.02732 7.46683 5.51837 7.72702 5.9369C7.9872 6.35544 8.38002 6.67828 8.845 6.85574L9.16 5.92131C9.115 5.92131 8.11 5.55738 8.485 4.05738C8.5 3.93443 9.5 0.983607 14.5 0.983607C19.5 0.983607 20.46 3.88525 20.5 4.0623C20.865 5.51311 19.93 5.8918 19.82 5.93115L20 6.39344L20.16 6.86066C20.6259 6.68193 21.0189 6.35721 21.2783 5.93672C21.5376 5.51623 21.649 5.02339 21.595 4.53443C27.895 5.75902 28 10.6082 28 10.8197L27.5 25.2738Z" fill="#FB8500"/>
<path d="M14.5 1.96753C9.74 1.96753 9.5 4.01835 9.5 4.42655C9.5 4.50032 9.54 6.00523 12 6.32982V14.2626H13V6.39376C13.1336 6.38506 13.2676 6.40455 13.3929 6.4509C13.5182 6.49726 13.632 6.56942 13.7267 6.66255C13.8214 6.75568 13.8948 6.86763 13.9419 6.99091C13.989 7.11419 14.0088 7.24595 14 7.37737C14 7.5078 14.0527 7.63289 14.1464 7.72512C14.2402 7.81735 14.3674 7.86917 14.5 7.86917C14.6326 7.86917 14.7598 7.81735 14.8536 7.72512C14.9473 7.63289 15 7.5078 15 7.37737C14.9912 7.24595 15.011 7.11419 15.0581 6.99091C15.1052 6.86763 15.1786 6.75568 15.2733 6.66255C15.368 6.56942 15.4818 6.49726 15.6071 6.4509C15.7324 6.40455 15.8664 6.38506 16 6.39376V14.2626H17V6.32982C19.46 6.00523 19.5 4.50032 19.5 4.42655C19.5 4.01835 19.26 1.96753 14.5 1.96753ZM16 5.41015C15.7185 5.39802 15.4378 5.44779 15.1783 5.55584C14.9188 5.66388 14.6871 5.82749 14.5 6.03474C14.3044 5.83828 14.0711 5.68192 13.8136 5.57472C13.5561 5.46751 13.2796 5.41157 13 5.41015C11.08 5.41015 10.525 4.75605 10.5 4.42655C10.5 3.93474 11.335 2.95114 14.5 2.95114C17.665 2.95114 18.5 3.90523 18.5 4.42655C18.47 4.76589 17.91 5.41015 16 5.41015Z" fill="#FB8500"/>
</svg>
