<svg width="38" height="30" viewBox="0 0 38 30" fill="none" xmlns="http://www.w3.org/2000/svg">
<path d="M37.2101 15.6421H31.8358C31.9071 15.1796 31.9487 14.7072 31.9487 14.2398C31.9487 11.7599 30.9035 9.35871 29.0092 7.44957C29.3061 7.02641 29.2408 6.47532 28.8073 6.11613C28.3678 5.75201 27.7087 5.69789 27.192 5.94391C24.8938 4.37921 22.0018 3.51321 19.0029 3.51321V0.659341C19.0029 0.295227 18.6466 0 18.2072 0H0.801686C0.356305 0 0 0.295227 0 0.659341V11.0267C0 11.3909 0.356305 11.6861 0.801686 11.6861H18.2072C18.6466 11.6861 19.0029 11.3909 19.0029 11.0267V4.20207C21.794 4.20207 24.496 5.00902 26.6397 6.46056C26.4319 6.86404 26.521 7.35116 26.9188 7.67591C27.1742 7.88749 27.5067 8.00066 27.863 8.00066C28.0471 8.00066 28.2253 7.97114 28.3916 7.91209C30.1493 9.68838 31.1173 11.9272 31.1173 14.2398C31.1173 14.6925 31.0817 15.1452 31.0045 15.5978C31.0045 15.6126 31.0104 15.6274 31.0104 15.6421H19.8046C19.3592 15.6421 19.0029 15.9374 19.0029 16.3015V24.2726C16.2178 24.2726 13.5158 23.4706 11.3661 22.0141C11.574 21.6106 11.4849 21.1235 11.087 20.7938C10.6891 20.4642 10.1012 20.3904 9.6143 20.5675C7.89216 18.8207 6.93013 16.6311 6.8945 14.3628H12.9933C13.3377 14.3628 13.6108 14.1316 13.6108 13.8511C13.6108 13.5657 13.3317 13.3394 12.9933 13.3394H12.15L11.7284 12.0207H7.26862L6.84699 13.3394H6.00374C5.65931 13.3394 5.38614 13.5706 5.38614 13.8511C5.38614 14.1365 5.66525 14.3628 6.00374 14.3628H6.05718C6.09281 16.7984 7.1261 19.1504 8.99076 21.0251C8.69384 21.4483 8.7651 21.9944 9.19861 22.3586C9.44802 22.5652 9.78057 22.6833 10.1369 22.6833C10.3744 22.6833 10.606 22.6243 10.8079 22.5259C13.112 24.0906 16.004 24.9566 18.997 24.9566V26.664C18.997 27.0281 19.3533 27.3233 19.7987 27.3233H37.2042C37.6436 27.3233 37.9999 27.0281 37.9999 26.664V16.3015C38.0059 15.9374 37.6496 15.6421 37.2101 15.6421ZM17.8449 9.95408H1.15799V1.03822H17.8449V9.95408ZM36.8479 25.5962H20.1609V16.6803H36.8479V25.5962Z" fill="#FB8500"/>
<path d="M31.9963 28.9764H31.153L30.7314 27.6577H26.2716L25.85 28.9764H25.0068C24.6623 28.9764 24.3892 29.2077 24.3892 29.4881C24.3892 29.7735 24.6683 29.9999 25.0068 29.9999H31.9963C32.3407 29.9999 32.6139 29.7686 32.6139 29.4881C32.6198 29.2077 32.3407 28.9764 31.9963 28.9764Z" fill="#FB8500"/>
</svg>
