<svg width="47" height="30" viewBox="0 0 47 30" fill="none" xmlns="http://www.w3.org/2000/svg">
<g opacity="0.9">
<path d="M46.248 28.4991H43.992V26.848C44.8944 26.5478 45.496 25.6473 45.496 24.6717C45.496 24.2214 45.1952 23.9212 44.744 23.9212C44.2928 23.9212 43.992 24.2214 43.992 24.6717C43.992 25.122 43.616 25.4972 43.1648 25.4972H4.2112C3.76 25.4972 3.384 25.122 3.384 24.6717V15.3659C3.384 15.0657 3.2336 14.8405 3.008 14.6904C2.3312 14.3152 1.88 13.5647 1.88 12.7392C1.88 11.4634 2.8576 10.4878 4.136 10.4878C5.4144 10.4878 6.392 11.4634 6.392 12.7392V20.2439C6.392 20.6942 6.6928 20.9944 7.144 20.9944H23.688C24.1392 20.9944 24.44 20.6942 24.44 20.2439C24.44 19.7936 24.1392 19.4934 23.688 19.4934H19.176V17.9175C19.176 17.167 19.8528 16.4916 20.6048 16.4916H26.7712C27.5232 16.4916 28.2 17.167 28.2 17.9175V19.4934H26.696C26.2448 19.4934 25.944 19.7936 25.944 20.2439C25.944 20.6942 26.2448 20.9944 26.696 20.9944H40.232C40.6832 20.9944 40.984 20.6942 40.984 20.2439V12.7392C40.984 11.4634 41.9616 10.4878 43.24 10.4878C44.5184 10.4878 45.496 11.4634 45.496 12.7392C45.496 13.5647 45.0448 14.3152 44.368 14.6904C44.1424 14.8405 43.992 15.0657 43.992 15.3659V21.6698C43.992 22.1201 44.2928 22.4203 44.744 22.4203C45.1952 22.4203 45.496 22.1201 45.496 21.6698V15.7411C46.3984 15.0657 47 13.94 47 12.7392C47 10.9381 45.7216 9.43715 43.992 9.06191V6.43527C43.992 4.5591 43.1648 2.75797 41.736 1.70732C40.4576 0.731707 38.8032 0.356473 37.224 0.731707C34.7424 1.33208 32.1856 1.33208 29.704 0.731707C25.7936 -0.243902 21.5824 -0.243902 17.672 0.731707C15.1904 1.33208 12.6336 1.33208 10.152 0.731707C9.776 0.65666 9.3248 0.881801 9.2496 1.25704C9.1744 1.63227 9.4 2.08255 9.776 2.1576C12.4832 2.83302 15.3408 2.83302 18.048 2.1576C21.7328 1.25704 25.6432 1.25704 29.328 2.1576C32.0352 2.83302 34.8928 2.83302 37.6 2.1576C38.728 1.85741 39.856 2.1576 40.8336 2.83302C41.8864 3.65854 42.488 5.00938 42.488 6.43527V9.06191C40.7584 9.43715 39.48 10.9381 39.48 12.7392V15.4409C39.0288 14.9906 37.7504 14.9906 37.7504 14.9906C37.0736 13.4146 37.1488 11.6135 37.9008 10.0375C38.0512 9.73734 37.976 9.3621 37.7504 9.13696C37.5248 8.91182 37.1488 8.83677 36.848 8.98687C35.1936 9.81238 33.1632 9.81238 31.5088 8.98687C31.208 8.83677 30.9072 8.91182 30.6064 9.13696C30.3808 9.3621 30.3056 9.73734 30.456 10.0375C31.208 11.6135 31.2832 13.4146 30.6064 14.9906C29.9296 15.0657 29.328 15.4409 28.8768 15.9662C28.4256 15.4409 27.824 15.1407 27.1472 14.9906C26.4704 13.4146 26.5456 11.6135 27.2976 10.0375C27.448 9.73734 27.3728 9.3621 27.1472 9.13696C26.9216 8.91182 26.5456 8.83677 26.2448 8.98687C24.5904 9.81238 22.56 9.81238 20.9056 8.98687C20.6048 8.83677 20.2288 8.91182 20.0032 9.13696C19.7776 9.3621 19.7024 9.73734 19.8528 10.0375C20.6048 11.6135 20.68 13.4146 20.0032 14.9906C19.3264 15.0657 18.7248 15.4409 18.2736 15.9662C17.8224 15.4409 17.2208 15.1407 16.544 14.9906C15.8672 13.4146 15.9424 11.6135 16.6944 10.0375C16.8448 9.73734 16.7696 9.3621 16.544 9.13696C16.3184 8.91182 15.9424 8.83677 15.6416 8.98687C15.1904 9.21201 14.7392 9.3621 14.288 9.43715C13.912 9.5122 13.6112 9.96248 13.6864 10.3377C13.7616 10.7129 14.2128 11.0131 14.5888 10.9381H14.664C14.3632 12.2889 14.3632 13.6398 14.8144 14.9156H10.9792C11.3552 13.6398 11.4304 12.2139 11.1296 10.9381C11.5056 11.0131 11.9568 10.788 12.032 10.4128C12.1072 10.0375 11.8816 9.58724 11.5056 9.5122C11.0544 9.43715 10.6032 9.21201 10.2272 9.06191C9.9264 8.91182 9.5504 8.98687 9.3248 9.21201C9.0992 9.43715 9.024 9.81238 9.1744 10.1126C9.9264 11.6135 10.0016 13.4146 9.3248 15.0657C9.3248 15.0657 8.272 14.9156 7.5952 15.4409V12.7392C7.5952 10.9381 6.3168 9.43715 4.5872 9.06191V6.43527C4.5872 4.70919 5.4896 3.20826 6.8432 2.45779C7.2192 2.23265 7.3696 1.78236 7.144 1.40713C6.9184 1.03189 6.4672 0.881801 6.0912 1.10694C4.2112 2.08255 3.008 4.10882 3.008 6.36023V8.98687C1.2784 9.3621 0 10.863 0 12.6642C0 13.8649 0.6016 14.9906 1.504 15.666V24.5966C1.504 25.5722 2.1056 26.3977 3.008 26.773V28.4991H1.128C0.6768 28.4991 0.376 28.7993 0.376 29.2495C0.376 29.6998 0.6768 30 1.128 30H34.216C34.6672 30 34.968 29.6998 34.968 29.2495C34.968 28.7993 34.6672 28.4991 34.216 28.4991H8.3472L9.0992 26.9981H38.2768L39.0288 28.4991H37.224C36.7728 28.4991 36.472 28.7993 36.472 29.2495C36.472 29.6998 36.7728 30 37.224 30H46.248C46.6992 30 47 29.6998 47 29.2495C47 28.7993 46.6992 28.4991 46.248 28.4991ZM29.704 17.9175C29.704 17.167 30.3808 16.4916 31.1328 16.4916H32.9376C33.3888 16.4916 33.6896 16.1914 33.6896 15.7411C33.6896 15.2908 33.3888 14.9906 32.9376 14.9906H32.336C32.712 13.7148 32.7872 12.2889 32.4864 11.0131C33.6144 11.3133 34.8176 11.3133 36.0208 11.0131C35.72 12.364 35.72 13.7148 36.1712 14.9906H36.0208C35.5696 14.9906 35.2688 15.2908 35.2688 15.7411C35.2688 16.1914 35.5696 16.4916 36.0208 16.4916H38.0512C38.8784 16.4916 39.5552 17.167 39.5552 17.9925V19.4934H29.704V17.9175ZM21.9584 11.0131C23.0864 11.3133 24.2896 11.3133 25.4928 11.0131C25.192 12.364 25.192 13.7148 25.6432 14.9906H21.808C22.184 13.7148 22.2592 12.2889 21.9584 11.0131ZM7.896 17.9175C7.896 17.0919 8.5728 16.4916 9.3248 16.4916H16.2432C16.9952 16.4916 17.672 17.167 17.672 17.9175V19.4934H7.896V17.9175ZM6.6928 28.4991H4.888V26.9981H7.4448L6.6928 28.4991ZM42.488 28.4991H40.6832L39.9312 26.9981H42.488V28.4991Z" fill="#FB8500"/>
<path d="M29.3282 5.15951C30.6818 5.4597 33.4642 5.98503 37.6002 5.15951C37.9762 5.08447 38.277 4.63419 38.1266 4.25895C38.0514 3.88372 37.6002 3.58353 37.2242 3.73362C34.7426 4.334 32.1858 4.334 29.7042 3.73362C29.3282 3.65858 28.877 3.88372 28.8018 4.25895C28.7266 4.70923 28.9522 5.08447 29.3282 5.15951ZM26.621 4.63419C26.621 4.63419 27.373 4.63419 27.4482 3.95876C27.5234 3.58353 27.2226 3.2083 26.7714 3.13325C25.7938 3.0582 24.741 2.98315 23.6882 2.98315C23.237 2.98315 22.9362 3.28334 22.9362 3.73362C22.9362 4.1839 23.237 4.48409 23.6882 4.48409C24.6658 4.48409 25.6434 4.55914 26.621 4.63419ZM5.64018 23.9963H7.14418C7.59538 23.9963 7.89618 23.6961 7.89618 23.2458C7.89618 22.7955 7.59538 22.4954 7.14418 22.4954H5.64018C5.18898 22.4954 4.88818 22.7955 4.88818 23.2458C4.88818 23.6961 5.18898 23.9963 5.64018 23.9963ZM10.1522 22.4954C9.70098 22.4954 9.40018 22.7955 9.40018 23.2458C9.40018 23.6961 9.70098 23.9963 10.1522 23.9963H14.6642C15.1154 23.9963 15.4162 23.6961 15.4162 23.2458C15.4162 22.7955 15.1154 22.4954 14.6642 22.4954H10.1522Z" fill="#FB8500"/>
<path d="M43.2403 13.4897C43.6556 13.4897 43.9923 13.1537 43.9923 12.7392C43.9923 12.3248 43.6556 11.9888 43.2403 11.9888C42.825 11.9888 42.4883 12.3248 42.4883 12.7392C42.4883 13.1537 42.825 13.4897 43.2403 13.4897Z" fill="#FB8500"/>
<path d="M4.13579 13.4897C4.55111 13.4897 4.88779 13.1537 4.88779 12.7392C4.88779 12.3248 4.55111 11.9888 4.13579 11.9888C3.72047 11.9888 3.38379 12.3248 3.38379 12.7392C3.38379 13.1537 3.72047 13.4897 4.13579 13.4897Z" fill="#FB8500"/>
</g>
</svg>
