<svg width="35" height="30" viewBox="0 0 35 30" fill="none" xmlns="http://www.w3.org/2000/svg">
<path d="M17.4925 5.73852e-05C17.4192 0.00101789 17.3469 0.0140952 17.2796 0.0385425C17.2123 0.0629899 17.1514 0.0983285 17.1003 0.142541C17.0493 0.186753 17.0092 0.238972 16.9822 0.296218C16.9552 0.353464 16.9419 0.414614 16.943 0.476177V3.11132C16.943 3.23565 17.0018 3.35488 17.1065 3.44279C17.2112 3.53071 17.3532 3.5801 17.5013 3.58011H19.5926C19.976 3.58011 20.1944 3.68427 20.3536 3.83465C20.5128 3.98504 20.6044 4.20276 20.6044 4.42797C20.6044 4.65319 20.5128 4.87274 20.3536 5.02312C20.1944 5.17351 19.976 5.27766 19.5926 5.27766H15.41C14.7474 5.27766 14.1797 5.50163 13.8159 5.84534C13.4521 6.18905 13.2816 6.62954 13.2816 7.06311C13.2816 7.49669 13.4521 7.93717 13.8159 8.28088C14.1797 8.62459 14.7474 8.85039 15.41 8.85039H16.943V11.4324H11.7464C10.6144 10.8707 9.33471 10.552 8.01739 10.5498C8.01666 10.5498 8.01593 10.5498 8.01521 10.5498C3.94456 10.5498 0.633558 13.3319 0.633523 16.7503C0.633521 16.7509 0.633521 16.7515 0.633523 16.7522C0.637164 17.7391 0.995107 18.689 1.53415 19.5631L0.147226 25.1044C-0.501346 27.1786 1.05118 29.4673 3.65816 29.9004C6.09197 30.3735 8.50852 29.1117 9.1688 27.0052L10.5644 23.3281C11.0921 23.5605 11.6118 23.8315 12.2152 23.8317C13.1611 23.8308 14.0374 23.4886 14.7209 22.949H19.5795C20.2625 23.4888 21.1373 23.8302 22.0829 23.8317C22.0837 23.8317 22.0844 23.8317 22.0851 23.8317C22.9304 23.8308 23.6996 23.5324 24.3509 23.0955L25.8381 27.0254L25.8316 27.0034C26.491 29.1122 28.911 30.3749 31.3466 29.9004C33.9498 29.4679 35.4964 27.1851 34.8553 25.1135L33.4531 19.5008C33.9634 18.6423 34.2969 17.7122 34.297 16.7503C34.297 13.3319 30.9838 10.5498 26.9132 10.5498C25.5936 10.551 24.3115 10.8698 23.1776 11.4324H18.0595V8.3816C18.0595 8.25727 18.0007 8.13804 17.896 8.05012C17.7913 7.96221 17.6493 7.91282 17.5013 7.9128H15.41C15.0265 7.9128 14.8081 7.80866 14.6489 7.65826C14.4897 7.50787 14.3981 7.28834 14.3981 7.06311C14.3981 6.83788 14.4897 6.62019 14.6489 6.46979C14.8081 6.3194 15.0265 6.21525 15.41 6.21525H19.5926C20.2551 6.21525 20.8228 5.98944 21.1867 5.64574C21.5505 5.30204 21.7209 4.86154 21.7209 4.42797C21.7209 3.9944 21.5505 3.5539 21.1867 3.2102C20.8228 2.8665 20.2551 2.64252 19.5926 2.64252H18.0595V0.476177C18.0607 0.413381 18.0468 0.351028 18.0188 0.292818C17.9907 0.234609 17.949 0.18173 17.8961 0.137321C17.8432 0.0929117 17.7802 0.0578776 17.7109 0.0342982C17.6416 0.0107189 17.5673 -0.000925172 17.4925 5.73852e-05V5.73852e-05ZM8.01521 11.4874C9.19278 11.4893 10.3444 11.7697 11.3408 12.2968C11.4301 12.3445 11.5337 12.3699 11.6395 12.37H23.2845C23.3896 12.3695 23.4924 12.3441 23.5811 12.2968C24.5785 11.7692 25.7344 11.4888 26.9132 11.4874C30.3804 11.4874 33.1805 13.8386 33.1805 16.7503C33.1804 17.6402 32.9101 18.515 32.3977 19.2939C32.3335 19.3922 32.3134 19.5065 32.341 19.6162L33.7671 25.3205C33.7691 25.3278 33.7713 25.3352 33.7737 25.3425C34.2588 26.894 33.0734 28.6648 31.1241 28.9848C31.1168 28.9859 31.1096 28.9871 31.1023 28.9884C29.238 29.3557 27.4319 28.4311 26.911 26.7653C26.9083 26.7573 26.9054 26.7494 26.9023 26.7415L25.2362 22.3392C25.2005 22.2442 25.1297 22.1612 25.034 22.1023C24.9383 22.0433 24.8228 22.0115 24.7041 22.0114H24.4294C24.3506 22.0116 24.2728 22.0256 24.201 22.0528C24.1293 22.0799 24.0651 22.1195 24.0128 22.1689C23.5218 22.63 22.8217 22.8933 22.0851 22.8941C21.3491 22.893 20.6502 22.6296 20.1595 22.1689C20.1073 22.1195 20.0431 22.0799 19.9713 22.0528C19.8996 22.0256 19.8218 22.0116 19.743 22.0114H14.5595C14.4808 22.0116 14.403 22.0256 14.3312 22.0528C14.2594 22.0799 14.1953 22.1195 14.143 22.1689C13.6519 22.63 12.9519 22.8933 12.2152 22.8941C11.6083 22.8939 11.0216 22.7154 10.5557 22.3887C10.4856 22.3394 10.4021 22.3053 10.3125 22.2895C10.223 22.2737 10.1303 22.2766 10.0424 22.2979C9.95452 22.3193 9.87424 22.3584 9.8086 22.4119C9.74297 22.4654 9.694 22.5316 9.666 22.6048L8.09807 26.7415C8.09565 26.7494 8.09346 26.7573 8.09153 26.7653C7.57055 28.4314 5.76462 29.3557 3.90022 28.9884C3.8937 28.9871 3.88716 28.9859 3.88059 28.9848C1.93129 28.6648 0.741624 26.8937 1.22667 25.3425C1.22907 25.3352 1.23125 25.3278 1.23322 25.3205L2.64413 19.6821C2.67259 19.5697 2.65086 19.4524 2.58307 19.3525C2.04139 18.5604 1.75378 17.6637 1.75004 16.7503V16.7485C1.75127 13.8377 4.54873 11.4874 8.01521 11.4874ZM26.9132 12.3132C26.0275 12.3132 25.3016 12.9303 25.3016 13.6739C25.3016 14.4174 26.0275 15.0326 26.9132 15.0326C27.7988 15.0326 28.5247 14.4174 28.5247 13.6739C28.5247 12.9303 27.7988 12.3132 26.9132 12.3132ZM8.00648 13.1941C7.93317 13.195 7.8608 13.2081 7.79351 13.2326C7.72621 13.257 7.66531 13.2923 7.61428 13.3366C7.56325 13.3808 7.5231 13.433 7.4961 13.4902C7.4691 13.5475 7.4558 13.6086 7.45695 13.6702V15.419H5.39836C5.32438 15.4181 5.25094 15.4296 5.18229 15.4528C5.11364 15.4759 5.05116 15.5103 4.99848 15.554C4.9458 15.5976 4.90396 15.6495 4.87541 15.7069C4.84686 15.7642 4.83215 15.8257 4.83215 15.8878C4.83215 15.9499 4.84686 16.0114 4.87541 16.0688C4.90396 16.1261 4.9458 16.178 4.99848 16.2217C5.05116 16.2653 5.11364 16.2997 5.18229 16.3228C5.25094 16.346 5.32438 16.3575 5.39836 16.3566H7.45695V18.1054C7.4559 18.1676 7.46957 18.2292 7.49715 18.2869C7.52474 18.3445 7.56569 18.397 7.61764 18.4412C7.66958 18.4855 7.73147 18.5206 7.79973 18.5446C7.86798 18.5686 7.94122 18.5809 8.01521 18.5809C8.08919 18.5809 8.16243 18.5686 8.23069 18.5446C8.29894 18.5206 8.36083 18.4855 8.41278 18.4412C8.46472 18.397 8.50567 18.3445 8.53326 18.2869C8.56084 18.2292 8.57451 18.1676 8.57347 18.1054V16.3566H10.632C10.706 16.3575 10.7795 16.346 10.8481 16.3228C10.9168 16.2997 10.9792 16.2653 11.0319 16.2217C11.0846 16.178 11.1264 16.1261 11.155 16.0688C11.1836 16.0114 11.1983 15.9499 11.1983 15.8878C11.1983 15.8257 11.1836 15.7642 11.155 15.7069C11.1264 15.6495 11.0846 15.5976 11.0319 15.554C10.9792 15.5103 10.9168 15.4759 10.8481 15.4528C10.7795 15.4296 10.706 15.4181 10.632 15.419H8.57347V13.6702C8.57464 13.6074 8.56077 13.545 8.53269 13.4868C8.50461 13.4286 8.46289 13.3757 8.41001 13.3313C8.35712 13.2869 8.29415 13.2519 8.22483 13.2283C8.15552 13.2047 8.08126 13.1931 8.00648 13.1941ZM26.9132 13.2508C27.1908 13.2508 27.4082 13.4331 27.4082 13.6739C27.4082 13.9146 27.1908 14.095 26.9132 14.095C26.6356 14.095 26.4182 13.9146 26.4182 13.6739C26.4182 13.4331 26.6356 13.2508 26.9132 13.2508ZM24.292 14.5345C23.4063 14.5345 22.6804 15.1515 22.6804 15.8951C22.6804 16.6387 23.4063 17.2539 24.292 17.2539C25.1776 17.2539 25.9035 16.6387 25.9035 15.8951C25.9035 15.1515 25.1776 14.5345 24.292 14.5345ZM29.5344 14.5345C28.6487 14.5345 27.925 15.1515 27.925 15.8951C27.925 16.6387 28.6487 17.2539 29.5344 17.2539C30.42 17.2539 31.1459 16.6387 31.1459 15.8951C31.1459 15.1515 30.42 14.5345 29.5344 14.5345ZM24.292 15.4721C24.5696 15.4721 24.787 15.6544 24.787 15.8951C24.787 16.1359 24.5696 16.3163 24.292 16.3163C24.0144 16.3163 23.797 16.1359 23.797 15.8951C23.797 15.6544 24.0144 15.4721 24.292 15.4721ZM29.5344 15.4721C29.812 15.4721 30.0294 15.6544 30.0294 15.8951C30.0294 16.1359 29.812 16.3163 29.5344 16.3163C29.2568 16.3163 29.0415 16.1359 29.0416 15.8951C29.0416 15.6544 29.2568 15.4721 29.5344 15.4721ZM26.9132 16.7558C26.0275 16.7558 25.3016 17.3728 25.3016 18.1164C25.3016 18.86 26.0275 19.4752 26.9132 19.4752C27.7988 19.4752 28.5247 18.86 28.5247 18.1164C28.5247 17.3728 27.7988 16.7558 26.9132 16.7558ZM26.9132 17.6934C27.1908 17.6934 27.4082 17.8757 27.4082 18.1164C27.4082 18.3571 27.1908 18.5376 26.9132 18.5376C26.6356 18.5376 26.4182 18.3571 26.4182 18.1164C26.4182 17.8757 26.6356 17.6934 26.9132 17.6934ZM12.2152 18.4845C11.0438 18.4845 10.0825 19.2935 10.0825 20.2773C10.0825 21.261 11.0438 22.0682 12.2152 22.0682C13.3867 22.0682 14.348 21.261 14.348 20.2773C14.348 19.2935 13.3867 18.4845 12.2152 18.4845ZM22.1898 18.4845C21.0183 18.4845 20.0571 19.2935 20.0571 20.2773C20.0571 21.261 21.0183 22.0682 22.1898 22.0682C23.3613 22.0682 24.3225 21.261 24.3225 20.2773C24.3225 19.2935 23.3613 18.4845 22.1898 18.4845ZM12.2152 19.4221C12.7833 19.4221 13.2314 19.8002 13.2314 20.2773C13.2314 20.7543 12.7833 21.1306 12.2152 21.1306C11.6472 21.1306 11.199 20.7543 11.199 20.2773C11.199 19.8002 11.6472 19.4221 12.2152 19.4221ZM22.1898 19.4221C22.7578 19.4221 23.206 19.8002 23.206 20.2773C23.206 20.7543 22.7578 21.1306 22.1898 21.1306C21.6217 21.1306 21.1736 20.7543 21.1736 20.2773C21.1736 19.8002 21.6217 19.4221 22.1898 19.4221Z" fill="#FB8500"/>
</svg>
