<svg width="50" height="31" viewBox="0 0 50 31" fill="none" xmlns="http://www.w3.org/2000/svg">
<path fill-rule="evenodd" clip-rule="evenodd" d="M2.61279 18.868C2.61279 19.0066 2.73285 19.123 2.89163 19.1383C3.63043 19.2096 4.19292 19.8043 4.19292 20.5151C4.19292 20.5718 4.1894 20.6277 4.18242 20.6827C4.11603 21.1963 4.23658 21.7159 4.52734 22.1678C4.71675 22.4635 4.82383 22.81 4.82383 23.1797C4.82383 24.2133 3.98455 25.0713 2.90151 25.1458C2.73847 25.157 2.61279 25.2751 2.61279 25.417V29.4327C2.61279 29.5829 2.75311 29.7047 2.92627 29.7047H17.8596C18.0327 29.7047 18.1731 29.5829 18.1731 29.4327V17.7684C18.1731 17.6181 18.0327 17.4963 17.8596 17.4963H2.92627C2.75311 17.4963 2.61279 17.6181 2.61279 17.7684V18.868ZM3.23969 18.6426V18.0404H17.5461V29.1606H3.23969V25.6537C4.49386 25.4392 5.4508 24.4159 5.4508 23.1797C5.4508 22.7133 5.31425 22.2765 5.075 21.903C5.07494 21.9029 5.07482 21.9028 5.07475 21.9026C4.8478 21.5498 4.75362 21.1442 4.80555 20.7426C4.80555 20.7424 4.80562 20.7422 4.80562 20.7419C4.815 20.6676 4.81988 20.5919 4.81988 20.5151C4.81988 19.6061 4.14333 18.8485 3.23969 18.6426Z" fill="#FB8500"/>
<path fill-rule="evenodd" clip-rule="evenodd" d="M18.1731 9.66826C18.1731 9.51804 18.0328 9.39624 17.8597 9.39624H9.32978C9.24283 9.39624 9.15977 9.42757 9.10048 9.48277L2.69697 15.4457C2.64287 15.4961 2.61279 15.5623 2.61279 15.6312V17.7684C2.61279 17.9187 2.75317 18.0405 2.92628 18.0405H17.8597C18.0328 18.0405 18.1731 17.9187 18.1731 17.7684V9.66826ZM17.5462 9.94033V17.4964H3.23976V15.7383L9.46615 9.94033H17.5462Z" fill="#FB8500"/>
<path fill-rule="evenodd" clip-rule="evenodd" d="M15.7419 21.9793C15.7419 21.8291 15.6016 21.7073 15.4284 21.7073H10.9483C10.7751 21.7073 10.6348 21.8291 10.6348 21.9793V29.4312C10.6348 29.5815 10.7751 29.7033 10.9483 29.7033H15.4284C15.6016 29.7033 15.7419 29.5815 15.7419 29.4312V21.9793ZM15.1149 22.2514V29.1592H11.2618V22.2514H15.1149Z" fill="#FB8500"/>
<path fill-rule="evenodd" clip-rule="evenodd" d="M9.77053 21.98C9.77053 21.8298 9.63017 21.708 9.45701 21.708H6.09672C5.92356 21.708 5.7832 21.8298 5.7832 21.98V25.868C5.7832 26.0183 5.92356 26.1401 6.09672 26.1401H9.45701C9.63017 26.1401 9.77053 26.0183 9.77053 25.868V21.98ZM9.14354 22.2521V25.596H6.41019V22.2521H9.14354Z" fill="#FB8500"/>
<path fill-rule="evenodd" clip-rule="evenodd" d="M26.8298 10.3162C26.8298 10.166 26.6895 10.0442 26.5163 10.0442H22.0362C21.863 10.0442 21.7227 10.166 21.7227 10.3162V14.2042C21.7227 14.3545 21.863 14.4763 22.0362 14.4763H26.5163C26.6895 14.4763 26.8298 14.3545 26.8298 14.2042V10.3162ZM26.2028 10.5882V13.9322H22.3496V10.5882H26.2028Z" fill="#FB8500"/>
<path fill-rule="evenodd" clip-rule="evenodd" d="M42.9411 10.3162C42.9411 10.166 42.8008 10.0442 42.6276 10.0442H38.1475C37.9743 10.0442 37.834 10.166 37.834 10.3162V14.2042C37.834 14.3545 37.9743 14.4763 38.1475 14.4763H42.6276C42.8008 14.4763 42.9411 14.3545 42.9411 14.2042V10.3162ZM42.3142 10.5882V13.9322H38.461V10.5882H42.3142Z" fill="#FB8500"/>
<path fill-rule="evenodd" clip-rule="evenodd" d="M18.1724 15.1764C18.1724 15.0261 18.032 14.9043 17.8589 14.9043H1.43258C1.25949 14.9043 1.11914 15.0261 1.11914 15.1764V16.4729C1.11914 16.6232 1.25949 16.745 1.43258 16.745H17.8589C18.032 16.745 18.1724 16.6232 18.1724 16.4729V15.1764ZM17.5454 15.4486V16.2007C17.5454 16.2007 1.74601 16.2007 1.74601 16.2007V15.4486L17.5454 15.4486Z" fill="#FB8500"/>
<path fill-rule="evenodd" clip-rule="evenodd" d="M34.5991 15.5009C34.5991 15.3506 34.4588 15.2288 34.2857 15.2288H17.8593C17.6862 15.2288 17.5459 15.3506 17.5459 15.5009V16.7973C17.5459 16.9476 17.6862 17.0695 17.8593 17.0695H34.2857C34.4588 17.0695 34.5991 16.9476 34.5991 16.7973V15.5009ZM33.9722 15.773V16.5252C33.9722 16.5252 18.1728 16.5252 18.1728 16.5252V15.773L33.9722 15.773Z" fill="#FB8500"/>
<path fill-rule="evenodd" clip-rule="evenodd" d="M49.9967 15.5009C49.9967 15.3506 49.8563 15.2288 49.6832 15.2288H34.2866C34.1135 15.2288 33.9731 15.3506 33.9731 15.5009V16.7973C33.9731 16.9476 34.1135 17.0695 34.2866 17.0695H49.6832C49.8563 17.0695 49.9967 16.9476 49.9967 16.7973V15.5009ZM49.3698 15.773V16.5252C49.3698 16.5252 34.6001 16.5252 34.6001 16.5252V15.773H49.3698Z" fill="#FB8500"/>
<path fill-rule="evenodd" clip-rule="evenodd" d="M33.1084 29.432C33.1084 29.2817 32.968 29.1599 32.7949 29.1599H0.313952C0.140829 29.1599 0.000488281 29.2817 0.000488281 29.432V30.728C0.000488281 30.8782 0.140829 31 0.313952 31H32.7949C32.968 31 33.1084 30.8782 33.1084 30.728V29.432ZM32.4815 29.704V30.456H0.627415V29.704H32.4815Z" fill="#FB8500"/>
<path fill-rule="evenodd" clip-rule="evenodd" d="M50.0001 29.432C50.0001 29.2817 49.8597 29.1599 49.6866 29.1599H32.7949C32.6218 29.1599 32.4814 29.2817 32.4814 29.432V30.728C32.4814 30.8782 32.6218 31 32.7949 31H49.6866C49.8597 31 50.0001 30.8782 50.0001 30.728V29.432ZM49.3731 29.704V30.456H33.1084V29.704H49.3731Z" fill="#FB8500"/>
<path fill-rule="evenodd" clip-rule="evenodd" d="M33.1062 6.75178C33.1062 6.60151 32.9658 6.47974 32.7927 6.47974H17.8594C17.6862 6.47974 17.5459 6.60151 17.5459 6.75178V15.4997C17.5459 15.6499 17.6862 15.7716 17.8594 15.7716H32.7927C32.9658 15.7716 33.1062 15.6499 33.1062 15.4997V6.75178ZM32.4793 7.02382V15.2276C32.4792 15.2276 18.1728 15.2276 18.1728 15.2276V7.02382H32.4793Z" fill="#FB8500"/>
<path fill-rule="evenodd" clip-rule="evenodd" d="M48.0404 6.75193C48.0404 6.60167 47.9 6.47989 47.7269 6.47989H32.7936C32.6204 6.47989 32.4801 6.60167 32.4801 6.75193V15.4998C32.4801 15.65 32.6204 15.7718 32.7936 15.7718H47.7269C47.9 15.7718 48.0404 15.65 48.0404 15.4998V6.75193ZM47.4135 7.02397V15.2278C47.4134 15.2278 33.107 15.2278 33.107 15.2278V7.02397H47.4135ZM25.2227 0.483808L25.2226 0.483752L25.2227 0.483808C25.2713 0.51789 25.332 0.539604 25.3983 0.543354L25.4372 0.556617C25.3779 0.556617 25.3198 0.54201 25.2697 0.514476L32.4801 4.4718V5.45592C32.4801 5.60618 32.6204 5.72796 32.7936 5.72796H47.7269C47.9 5.72796 48.0404 5.60618 48.0404 5.45592V4.32198C48.0404 4.22869 47.9853 4.14189 47.8945 4.09202L40.5153 0.0420849C40.4652 0.0146066 40.4071 0 40.3478 0H25.4194C25.2463 0 25.106 0.121777 25.106 0.272041C25.106 0.357609 25.1515 0.434 25.2227 0.483808ZM26.4965 0.544081H40.2569C40.257 0.544081 47.4134 4.4718 47.4134 4.4718C47.4135 4.4718 47.4135 5.18394 47.4135 5.18394C47.4134 5.18394 33.107 5.18394 33.107 5.18394V4.32198C33.107 4.22869 33.052 4.14189 32.9611 4.09202L26.4965 0.544081ZM25.5312 0.544081C25.5013 0.552252 25.4697 0.556617 25.4372 0.556617L25.4444 0.544081H25.5312Z" fill="#FB8500"/>
<path fill-rule="evenodd" clip-rule="evenodd" d="M30.9859 29.1608H19.6662V22.2526H30.9441C31.0598 22.2526 31.1661 22.1974 31.2205 22.1088C31.4886 21.6734 31.5967 21.1773 31.5338 20.6858C31.5298 20.6317 31.526 20.5738 31.526 20.5153C31.526 19.8044 32.0886 19.2097 32.8274 19.1385C32.9861 19.1231 33.1062 19.0067 33.1062 18.868V16.7965C33.1062 16.6462 32.9658 16.5244 32.7927 16.5244H17.8594C17.6862 16.5244 17.5459 16.6462 17.5459 16.7965V29.4329C17.5459 29.5831 17.6862 29.7049 17.8594 29.7049H32.7927C32.9658 29.7049 33.1062 29.5831 33.1062 29.4329V25.4172C33.1062 25.2753 32.9805 25.1572 32.8175 25.146C32.315 25.1114 31.8636 24.9065 31.5308 24.5903C31.4436 24.5075 31.3066 24.4796 31.186 24.5201C31.0654 24.5608 30.9859 24.6615 30.9859 24.7738V29.1608ZM19.0393 29.1608H18.1728V17.0685H32.4793V18.6427C31.5757 18.8486 30.8991 19.6062 30.8991 20.5153C30.8991 20.5882 30.9035 20.6601 30.9091 20.7312C30.9094 20.7351 30.9098 20.7392 30.9103 20.7431C30.9531 21.073 30.8972 21.4058 30.7474 21.7085C30.7473 21.7085 19.3527 21.7085 19.3527 21.7085C19.1796 21.7085 19.0393 21.8304 19.0393 21.9806V29.1608ZM31.6128 29.1608V25.3539L31.613 25.354C31.8761 25.4981 32.1683 25.6008 32.4793 25.6539V29.1608H31.6128Z" fill="#FB8500"/>
<path fill-rule="evenodd" clip-rule="evenodd" d="M9.76881 20.6841V19.388C9.76881 19.238 9.62806 19.1162 9.45521 19.1162C9.28235 19.1162 9.1416 19.238 9.1416 19.388V20.6841C9.1416 20.8344 9.28235 20.9562 9.45521 20.9562C9.62806 20.9562 9.76881 20.8344 9.76881 20.6841Z" fill="#FB8500"/>
<path fill-rule="evenodd" clip-rule="evenodd" d="M12.7556 20.6841V19.388C12.7556 19.238 12.6149 19.1162 12.442 19.1162C12.2692 19.1162 12.1284 19.238 12.1284 19.388V20.6841C12.1284 20.8344 12.2692 20.9562 12.442 20.9562C12.6149 20.9562 12.7556 20.8344 12.7556 20.6841Z" fill="#FB8500"/>
<path fill-rule="evenodd" clip-rule="evenodd" d="M23.8425 20.6841V19.388C23.8425 19.238 23.7018 19.1162 23.5289 19.1162C23.3561 19.1162 23.2153 19.238 23.2153 19.388V20.6841C23.2153 20.8344 23.3561 20.9562 23.5289 20.9562C23.7018 20.9562 23.8425 20.8344 23.8425 20.6841Z" fill="#FB8500"/>
<path fill-rule="evenodd" clip-rule="evenodd" d="M23.8425 9.01981V8.0478C23.8425 7.89762 23.7018 7.77588 23.5289 7.77588C23.3561 7.77588 23.2153 7.89762 23.2153 8.0478V9.01981C23.2153 9.16998 23.3561 9.29197 23.5289 9.29197C23.7018 9.29197 23.8425 9.16998 23.8425 9.01981Z" fill="#FB8500"/>
<path fill-rule="evenodd" clip-rule="evenodd" d="M39.9544 9.01981V8.0478C39.9544 7.89762 39.8136 7.77588 39.6408 7.77588C39.4679 7.77588 39.3271 7.89762 39.3271 8.0478V9.01981C39.3271 9.16998 39.4679 9.29197 39.6408 9.29197C39.8136 9.29197 39.9544 9.16998 39.9544 9.01981Z" fill="#FB8500"/>
<path fill-rule="evenodd" clip-rule="evenodd" d="M15.7424 20.6841V19.388C15.7424 19.238 15.6017 19.1162 15.4288 19.1162C15.256 19.1162 15.1152 19.238 15.1152 19.388V20.6841C15.1152 20.8344 15.256 20.9562 15.4288 20.9562C15.6017 20.9562 15.7424 20.8344 15.7424 20.6841Z" fill="#FB8500"/>
<path fill-rule="evenodd" clip-rule="evenodd" d="M26.8294 20.6841V19.388C26.8294 19.238 26.6886 19.1162 26.5158 19.1162C26.3429 19.1162 26.2021 19.238 26.2021 19.388V20.6841C26.2021 20.8344 26.3429 20.9562 26.5158 20.9562C26.6886 20.9562 26.8294 20.8344 26.8294 20.6841Z" fill="#FB8500"/>
<path fill-rule="evenodd" clip-rule="evenodd" d="M26.8294 9.01981V8.0478C26.8294 7.89762 26.6886 7.77588 26.5158 7.77588C26.3429 7.77588 26.2021 7.89762 26.2021 8.0478V9.01981C26.2021 9.16998 26.3429 9.29197 26.5158 9.29197C26.6886 9.29197 26.8294 9.16998 26.8294 9.01981Z" fill="#FB8500"/>
<path fill-rule="evenodd" clip-rule="evenodd" d="M42.9412 9.01981V8.0478C42.9412 7.89762 42.8004 7.77588 42.6276 7.77588C42.4547 7.77588 42.314 7.89762 42.314 8.0478V9.01981C42.314 9.16998 42.4547 9.29197 42.6276 9.29197C42.8004 9.29197 42.9412 9.16998 42.9412 9.01981Z" fill="#FB8500"/>
<path fill-rule="evenodd" clip-rule="evenodd" d="M6.40895 20.6841V19.388C6.40895 19.238 6.2682 19.1162 6.09534 19.1162C5.92249 19.1162 5.78174 19.238 5.78174 19.388V20.6841C5.78174 20.8344 5.92249 20.9562 6.09534 20.9562C6.2682 20.9562 6.40895 20.8344 6.40895 20.6841Z" fill="#FB8500"/>
<path fill-rule="evenodd" clip-rule="evenodd" d="M8.08864 20.6841V19.388C8.08864 19.238 7.94789 19.1162 7.77503 19.1162C7.60217 19.1162 7.46143 19.238 7.46143 19.388V20.6841C7.46143 20.8344 7.60217 20.9562 7.77503 20.9562C7.94789 20.9562 8.08864 20.8344 8.08864 20.6841Z" fill="#FB8500"/>
<path fill-rule="evenodd" clip-rule="evenodd" d="M8.08864 25.868V21.9799C8.08864 21.8302 7.94789 21.7078 7.77503 21.7078C7.60217 21.7078 7.46143 21.8302 7.46143 21.9799V25.868C7.46143 26.0186 7.60217 26.1401 7.77503 26.1401C7.94789 26.1401 8.08864 26.0186 8.08864 25.868Z" fill="#FB8500"/>
<path fill-rule="evenodd" clip-rule="evenodd" d="M11.262 20.6841V19.388C11.262 19.238 11.1212 19.1162 10.9484 19.1162C10.7755 19.1162 10.6348 19.238 10.6348 19.388V20.6841C10.6348 20.8344 10.7755 20.9562 10.9484 20.9562C11.1212 20.9562 11.262 20.8344 11.262 20.6841Z" fill="#FB8500"/>
<path fill-rule="evenodd" clip-rule="evenodd" d="M22.3494 20.6841V19.388C22.3494 19.238 22.2086 19.1162 22.0358 19.1162C21.8629 19.1162 21.7222 19.238 21.7222 19.388V20.6841C21.7222 20.8344 21.8629 20.9562 22.0358 20.9562C22.2086 20.9562 22.3494 20.8344 22.3494 20.6841Z" fill="#FB8500"/>
<path fill-rule="evenodd" clip-rule="evenodd" d="M22.3494 9.01981V8.0478C22.3494 7.89762 22.2086 7.77588 22.0358 7.77588C21.8629 7.77588 21.7222 7.89762 21.7222 8.0478V9.01981C21.7222 9.16998 21.8629 9.29197 22.0358 9.29197C22.2086 9.29197 22.3494 9.16998 22.3494 9.01981Z" fill="#FB8500"/>
<path fill-rule="evenodd" clip-rule="evenodd" d="M38.4612 9.01981V8.0478C38.4612 7.89762 38.3204 7.77588 38.1476 7.77588C37.9747 7.77588 37.834 7.89762 37.834 8.0478V9.01981C37.834 9.16998 37.9747 9.29197 38.1476 9.29197C38.3204 9.29197 38.4612 9.16998 38.4612 9.01981Z" fill="#FB8500"/>
<path fill-rule="evenodd" clip-rule="evenodd" d="M14.2488 20.6841V19.388C14.2488 19.238 14.108 19.1162 13.9352 19.1162C13.7623 19.1162 13.6216 19.238 13.6216 19.388V20.6841C13.6216 20.8344 13.7623 20.9562 13.9352 20.9562C14.108 20.9562 14.2488 20.8344 14.2488 20.6841Z" fill="#FB8500"/>
<path fill-rule="evenodd" clip-rule="evenodd" d="M25.3357 20.6841V19.388C25.3357 19.238 25.195 19.1162 25.0221 19.1162C24.8492 19.1162 24.7085 19.238 24.7085 19.388V20.6841C24.7085 20.8344 24.8492 20.9562 25.0221 20.9562C25.195 20.9562 25.3357 20.8344 25.3357 20.6841Z" fill="#FB8500"/>
<path fill-rule="evenodd" clip-rule="evenodd" d="M25.3357 9.01981V8.0478C25.3357 7.89762 25.195 7.77588 25.0221 7.77588C24.8492 7.77588 24.7085 7.89762 24.7085 8.0478V9.01981C24.7085 9.16998 24.8492 9.29197 25.0221 9.29197C25.195 9.29197 25.3357 9.16998 25.3357 9.01981Z" fill="#FB8500"/>
<path fill-rule="evenodd" clip-rule="evenodd" d="M41.4475 9.01981V8.0478C41.4475 7.89762 41.3068 7.77588 41.1339 7.77588C40.9611 7.77588 40.8203 7.89762 40.8203 8.0478V9.01981C40.8203 9.16998 40.9611 9.29197 41.1339 9.29197C41.3068 9.29197 41.4475 9.16998 41.4475 9.01981Z" fill="#FB8500"/>
<path fill-rule="evenodd" clip-rule="evenodd" d="M24.5891 14.2037V10.6397C24.5891 10.49 24.4484 10.3679 24.2755 10.3679C24.1027 10.3679 23.9619 10.49 23.9619 10.6397V14.2037C23.9619 14.3543 24.1027 14.4755 24.2755 14.4755C24.4484 14.4755 24.5891 14.3543 24.5891 14.2037Z" fill="#FB8500"/>
<path fill-rule="evenodd" clip-rule="evenodd" d="M40.7009 14.2037V10.6397C40.7009 10.49 40.5602 10.3679 40.3873 10.3679C40.2145 10.3679 40.0737 10.49 40.0737 10.6397V14.2037C40.0737 14.3543 40.2145 14.4755 40.3873 14.4755C40.5602 14.4755 40.7009 14.3543 40.7009 14.2037Z" fill="#FB8500"/>
<path fill-rule="evenodd" clip-rule="evenodd" d="M32.481 18.8483C32.481 18.9264 32.5194 19.0003 32.5866 19.0521C32.6538 19.1036 32.7434 19.1279 32.8323 19.1185C32.886 19.1127 32.9405 19.1098 32.9958 19.1098C33.8127 19.1098 34.4634 19.74 34.4634 20.504C34.4634 20.5607 34.46 20.6167 34.4529 20.6715C34.3865 21.1854 34.5071 21.7048 34.7979 22.1567C34.9872 22.4522 35.0943 22.7989 35.0943 23.1686C35.0943 24.2582 34.1606 25.1528 32.9958 25.1528C32.9372 25.1528 32.8793 25.1505 32.8222 25.146C32.7348 25.1392 32.6478 25.1648 32.5829 25.2163C32.5179 25.2678 32.481 25.3407 32.481 25.4172V29.4322C32.481 29.5826 32.6213 29.7044 32.7946 29.7044H47.7282C47.9014 29.7044 48.0414 29.5826 48.0414 29.4322V16.7961C48.0414 16.6458 47.9014 16.5239 47.7282 16.5239H32.7946C32.6213 16.5239 32.481 16.6458 32.481 16.7961V18.8483ZM33.1078 25.6949C34.5541 25.6401 35.7212 24.5343 35.7212 23.1686C35.7212 22.702 35.5849 22.2653 35.3456 21.892C35.3456 21.8917 35.3452 21.8917 35.3452 21.8914C35.1182 21.5385 35.0242 21.1332 35.076 20.7314C35.076 20.7311 35.076 20.7311 35.076 20.7308C35.0858 20.6563 35.0906 20.5808 35.0906 20.504C35.0906 19.4643 34.2062 18.6228 33.1078 18.5687V17.0682H47.4146V29.1601H33.1078V25.6949Z" fill="#FB8500"/>
<path fill-rule="evenodd" clip-rule="evenodd" d="M30.9443 22.2514L30.6588 21.8672C30.708 21.7729 30.8174 21.7073 30.9443 21.7073H19.353C19.1799 21.7073 19.0396 21.8291 19.0396 21.9793V29.4312C19.0396 29.5815 19.1799 29.7033 19.353 29.7033H31.2996C31.4728 29.7033 31.6131 29.5815 31.6131 29.4312V24.7724C31.6131 24.7022 31.5819 24.6347 31.5258 24.584C31.1334 24.2291 30.8954 23.7294 30.8954 23.1785C30.8954 22.8129 31.0001 22.4701 31.1836 22.1752L31.2283 22.0945L30.9443 22.2514ZM30.458 22.2514C30.3358 22.5383 30.2685 22.8511 30.2685 23.1785C30.2685 23.836 30.5398 24.4345 30.9863 24.8782C30.9861 24.878 30.9861 29.1592 30.9861 29.1592H19.6664V22.2514H30.458Z" fill="#FB8500"/>
<path fill-rule="evenodd" clip-rule="evenodd" d="M0.373863 21.9014C0.373343 21.9019 0.373083 21.9026 0.372563 21.9031C0.136234 22.2774 0 22.7136 0 23.1796C0 24.5803 1.22818 25.7077 2.72572 25.7077C4.22351 25.7077 5.45143 24.5803 5.45143 23.1796C5.45143 22.7131 5.31494 22.2764 5.07575 21.9029C5.07549 21.9026 5.07549 21.9026 5.07549 21.9024C4.84852 21.5495 4.7544 21.1439 4.80614 20.7424C4.80614 20.7422 4.8064 20.7419 4.8064 20.7417C4.81576 20.6673 4.82044 20.5916 4.82044 20.515C4.82044 19.4397 3.87512 18.5767 2.72572 18.5767C1.57631 18.5767 0.630991 19.4397 0.630991 20.515C0.630991 20.5878 0.635411 20.6597 0.640871 20.7307C0.641391 20.7349 0.641651 20.7388 0.642171 20.7427C0.694169 21.1439 0.600313 21.549 0.373863 21.9014ZM0.922178 22.165C1.21129 21.7147 1.33114 21.1974 1.26562 20.685C1.26172 20.6313 1.25782 20.5737 1.25782 20.515C1.25782 19.751 1.90883 19.1209 2.72572 19.1209C3.5426 19.1209 4.19361 19.751 4.19361 20.515C4.19361 20.5717 4.18997 20.6274 4.18321 20.6824C4.11665 21.1962 4.23729 21.7156 4.52795 22.1677C4.71749 22.4632 4.8246 22.8097 4.8246 23.1796C4.8246 24.2693 3.89072 25.1637 2.72572 25.1637C1.56071 25.1637 0.627092 24.2693 0.627092 23.1796C0.627092 22.8092 0.734467 22.4624 0.922178 22.165Z" fill="#FB8500"/>
<path fill-rule="evenodd" clip-rule="evenodd" d="M3.24049 25.4357V21.3321C3.24049 21.1821 3.09974 21.0603 2.92689 21.0603C2.75403 21.0603 2.61328 21.1821 2.61328 21.3321V25.4357C2.61328 25.5857 2.75403 25.7078 2.92689 25.7078C3.09974 25.7078 3.24049 25.5857 3.24049 25.4357Z" fill="#FB8500"/>
<path fill-rule="evenodd" clip-rule="evenodd" d="M33.1082 29.4327V21.9806C33.1082 21.8308 32.9674 21.7087 32.7946 21.7087C32.6217 21.7087 32.481 21.8308 32.481 21.9806V29.4327C32.481 29.5831 32.6217 29.7045 32.7946 29.7045C32.9674 29.7045 33.1082 29.5831 33.1082 29.4327Z" fill="#FB8500"/>
<path fill-rule="evenodd" clip-rule="evenodd" d="M34.6017 5.45645C34.6017 5.30616 34.4614 5.18433 34.2882 5.18433H16.3677C16.1946 5.18433 16.0542 5.30616 16.0542 5.45645V6.75289C16.0542 6.90318 16.1946 7.02502 16.3677 7.02502H34.2882C34.4614 7.02502 34.6017 6.90318 34.6017 6.75289V5.45645ZM33.9748 5.72859V6.48076C33.9748 6.48076 16.6812 6.48076 16.6812 6.48076V5.72858L33.9748 5.72859Z" fill="#FB8500"/>
<path fill-rule="evenodd" clip-rule="evenodd" d="M49.9967 5.45645C49.9967 5.30616 49.8563 5.18433 49.6832 5.18433H34.2866C34.1135 5.18433 33.9731 5.30616 33.9731 5.45645V6.75289C33.9731 6.90318 34.1135 7.02502 34.2866 7.02502H49.6832C49.8563 7.02502 49.9967 6.90318 49.9967 6.75289V5.45645ZM49.3698 5.72858V6.48076C49.3698 6.48076 34.6001 6.48076 34.6001 6.48076V5.72858H49.3698Z" fill="#FB8500"/>
<path fill-rule="evenodd" clip-rule="evenodd" d="M19.3541 23.5484H30.5543C30.7272 23.5484 30.8679 23.4266 30.8679 23.2762C30.8679 23.1262 30.7272 23.0044 30.5543 23.0044H19.3541C19.1813 23.0044 19.0405 23.1262 19.0405 23.2762C19.0405 23.4266 19.1813 23.5484 19.3541 23.5484Z" fill="#FB8500"/>
<path fill-rule="evenodd" clip-rule="evenodd" d="M19.3541 24.8449H31.0131C31.186 24.8449 31.3267 24.7229 31.3267 24.5727C31.3267 24.4225 31.186 24.3008 31.0131 24.3008H19.3541C19.1812 24.3008 19.0405 24.4225 19.0405 24.5727C19.0405 24.7229 19.1812 24.8449 19.3541 24.8449Z" fill="#FB8500"/>
<path fill-rule="evenodd" clip-rule="evenodd" d="M19.3539 26.1404H31.3008C31.4741 26.1404 31.6142 26.0186 31.6142 25.8683C31.6142 25.7183 31.4741 25.5964 31.3008 25.5964H19.3539C19.1811 25.5964 19.0405 25.7183 19.0405 25.8683C19.0405 26.0186 19.1811 26.1404 19.3539 26.1404Z" fill="#FB8500"/>
<path fill-rule="evenodd" clip-rule="evenodd" d="M19.3539 27.4363H31.3008C31.4741 27.4363 31.6142 27.3145 31.6142 27.1642C31.6142 27.0142 31.4741 26.8923 31.3008 26.8923H19.3539C19.1811 26.8923 19.0405 27.0142 19.0405 27.1642C19.0405 27.3145 19.1811 27.4363 19.3539 27.4363Z" fill="#FB8500"/>
<path fill-rule="evenodd" clip-rule="evenodd" d="M30.6429 21.8904C30.6424 21.8909 30.6421 21.8916 30.6416 21.8921C30.4053 22.2664 30.269 22.7026 30.269 23.1686C30.269 24.5693 31.4972 25.6967 32.9948 25.6967C34.4926 25.6967 35.7205 24.5693 35.7205 23.1686C35.7205 22.7022 35.584 22.2654 35.3448 21.8919C35.3445 21.8916 35.3445 21.8916 35.3445 21.8914C35.1176 21.5385 35.0234 21.1329 35.0752 20.7314C35.0752 20.7312 35.0754 20.7309 35.0754 20.7307C35.0848 20.6563 35.0895 20.5807 35.0895 20.5041C35.0895 19.4287 34.1442 18.5657 32.9948 18.5657C31.8454 18.5657 30.9 19.4287 30.9 20.5041C30.9 20.5768 30.9045 20.6488 30.9099 20.7198C30.9104 20.7239 30.9107 20.7278 30.9112 20.7317C30.9632 21.1329 30.8694 21.5381 30.6429 21.8904ZM31.1912 22.154C31.4803 21.7037 31.6002 21.1864 31.5347 20.674C31.5308 20.6203 31.5269 20.5627 31.5269 20.5041C31.5269 19.74 32.1779 19.1099 32.9948 19.1099C33.8116 19.1099 34.4627 19.74 34.4627 20.5041C34.4627 20.5607 34.459 20.6164 34.4523 20.6714C34.3857 21.1852 34.5063 21.7046 34.797 22.1567C34.9865 22.4522 35.0936 22.7987 35.0936 23.1686C35.0936 24.2583 34.1598 25.1527 32.9948 25.1527C31.8298 25.1527 30.8961 24.2583 30.8961 23.1686C30.8961 22.7982 31.0035 22.4514 31.1912 22.154Z" fill="#FB8500"/>
<path fill-rule="evenodd" clip-rule="evenodd" d="M17.5459 5.45594C17.5459 5.6062 17.6862 5.72798 17.8594 5.72798H32.7927C32.9658 5.72798 33.1062 5.6062 33.1062 5.45594V4.322C33.1062 4.22871 33.0511 4.14191 32.9603 4.09204L25.5811 0.0421027C25.4798 -0.0134694 25.3508 -0.0140851 25.2488 0.0405916L17.6946 4.09053C17.6022 4.14012 17.5459 4.2277 17.5459 4.322V5.45594ZM18.1728 5.18395V4.47372L25.4116 0.592843L32.4792 4.47181C32.4793 4.47181 32.4793 5.18395 32.4793 5.18395H18.1728Z" fill="#FB8500"/>
</svg>
